<svg width="40" height="40" viewBox="0 0 40 40" fill="none" xmlns="http://www.w3.org/2000/svg">
<path fill-rule="evenodd" clip-rule="evenodd" d="M20.0002 25.5555C23.0685 25.5555 25.5558 23.0682 25.5558 20C25.5558 16.9317 23.0685 14.4444 20.0002 14.4444C16.932 14.4444 14.4447 16.9317 14.4447 20C14.4447 23.0682 16.932 25.5555 20.0002 25.5555ZM20.0002 28.8889C24.9094 28.8889 28.8891 24.9092 28.8891 20C28.8891 15.0908 24.9094 11.1111 20.0002 11.1111C15.091 11.1111 11.1113 15.0908 11.1113 20C11.1113 24.9092 15.091 28.8889 20.0002 28.8889Z" fill="#27222B"/>
<path fill-rule="evenodd" clip-rule="evenodd" d="M20 36.6667C29.2047 36.6667 36.6667 29.2047 36.6667 20C36.6667 10.7953 29.2047 3.33333 20 3.33333C10.7953 3.33333 3.33333 10.7953 3.33333 20C3.33333 29.2047 10.7953 36.6667 20 36.6667ZM20 40C31.0457 40 40 31.0457 40 20C40 8.9543 31.0457 0 20 0C8.9543 0 0 8.9543 0 20C0 31.0457 8.9543 40 20 40Z" fill="#27222B"/>
<path fill-rule="evenodd" clip-rule="evenodd" d="M37.7782 21.6666H2.22266V18.3333H37.7782V21.6666Z" fill="#27222B"/>
</svg>
