<svg width="838" height="46" viewBox="0 0 838 46" fill="none" xmlns="http://www.w3.org/2000/svg">
<path d="M733.505 23.1245L733.062 23.3567L733.505 23.1245ZM662.948 23.1245L663.391 23.3568L662.948 23.1245ZM592.391 23.1245L591.948 23.3568L592.391 23.1245ZM521.834 23.1245L521.391 22.8923L521.834 23.1245ZM451.276 23.1245L450.834 23.3568L451.276 23.1245ZM239.605 23.1245L240.048 23.3567L239.605 23.1245ZM98.4905 23.1245L98.0477 22.8923L98.4905 23.1245ZM832.333 23.1245C832.333 24.5973 833.527 25.7912 835 25.7912C836.473 25.7912 837.667 24.5973 837.667 23.1245C837.667 21.6518 836.473 20.4579 835 20.4579C833.527 20.4579 832.333 21.6518 832.333 23.1245ZM0.333333 23.1245C0.333333 24.5973 1.52724 25.7912 3 25.7912C4.47276 25.7912 5.66667 24.5973 5.66667 23.1245C5.66667 21.6518 4.47276 20.4579 3 20.4579C1.52724 20.4579 0.333333 21.6518 0.333333 23.1245ZM781.422 43.1192L781.259 42.6468L781.422 43.1192ZM733.062 23.3567C743.314 42.9061 764.074 49.6674 781.586 43.5916L781.259 42.6468C764.205 48.5635 743.966 41.995 733.948 22.8923L733.062 23.3567ZM663.391 23.3568C678.673 -5.78555 717.78 -5.78557 733.062 23.3567L733.948 22.8923C718.291 -6.9641 678.162 -6.96408 662.505 22.8923L663.391 23.3568ZM591.948 23.3568C607.605 53.2132 647.734 53.2131 663.391 23.3568L662.505 22.8923C647.223 52.0346 608.116 52.0346 592.834 22.8923L591.948 23.3568ZM522.276 23.3568C537.559 -5.78555 576.666 -5.78554 591.948 23.3568L592.834 22.8923C577.177 -6.96407 537.048 -6.96407 521.391 22.8923L522.276 23.3568ZM450.834 23.3568C466.491 53.2132 506.62 53.2132 522.276 23.3568L521.391 22.8923C506.108 52.0346 467.002 52.0346 451.719 22.8923L450.834 23.3568ZM381.162 23.3567C396.444 -5.78556 435.551 -5.78554 450.834 23.3568L451.719 22.8923C436.062 -6.96407 395.933 -6.96409 380.276 22.8923L381.162 23.3567ZM309.719 23.3567C325.376 53.2131 365.505 53.2132 381.162 23.3567L380.276 22.8923C364.994 52.0346 325.887 52.0346 310.605 22.8923L309.719 23.3567ZM240.048 23.3567C255.33 -5.78556 294.437 -5.78556 309.719 23.3567L310.605 22.8923C294.948 -6.96409 254.819 -6.96409 239.162 22.8923L240.048 23.3567ZM168.605 23.3567C184.262 53.2131 224.391 53.2132 240.048 23.3567L239.162 22.8923C223.88 52.0346 184.773 52.0346 169.491 22.8923L168.605 23.3567ZM98.9333 23.3567C114.216 -5.78557 153.323 -5.78558 168.605 23.3567L169.491 22.8923C153.834 -6.96411 113.705 -6.9641 98.0477 22.8923L98.9333 23.3567ZM98.0477 22.8923C86.944 44.0661 63.2791 49.8436 45.3117 40.278L44.8418 41.1607C63.2906 50.9825 87.5677 45.0301 98.9333 23.3567L98.0477 22.8923ZM45.3117 40.278C41.9404 38.4832 38.5881 36.4896 35.2027 34.5C31.8216 32.5129 28.4098 30.5314 24.9385 28.7744C17.997 25.261 10.7783 22.6245 3 22.6245V23.6245C10.5512 23.6245 17.6052 26.1835 24.4869 29.6666C27.9271 31.4079 31.3145 33.3748 34.6961 35.3621C38.0734 37.347 41.4474 39.3536 44.8418 41.1607L45.3117 40.278ZM781.586 43.5916C790.607 40.462 799.312 35.4305 808.034 31.2344C816.79 27.0221 825.607 23.6245 835 23.6245V22.6245C825.372 22.6245 816.385 26.107 807.6 30.3333C798.782 34.5759 790.208 39.5418 781.259 42.6468L781.586 43.5916Z" fill="url(#paint0_linear_587_4793)"/>
<defs>
<linearGradient id="paint0_linear_587_4793" x1="63.2117" y1="23.1246" x2="768.784" y2="23.1246" gradientUnits="userSpaceOnUse">
<stop stop-color="#FFD177"/>
<stop offset="0.240029" stop-color="#FF9595"/>
<stop offset="0.500029" stop-color="#FCA3D4"/>
<stop offset="0.735029" stop-color="#AFDAFF"/>
<stop offset="1" stop-color="#8BEBB6"/>
</linearGradient>
</defs>
</svg>
