<svg width="16" height="16" viewBox="0 0 16 16" fill="none" xmlns="http://www.w3.org/2000/svg">
<path d="M7.80482 3.52858C8.06517 3.78892 8.06517 4.21103 7.80482 4.47138L4.94289 7.33331L12.6667 7.33331C13.0349 7.33331 13.3334 7.63179 13.3334 7.99998C13.3334 8.36817 13.0349 8.66665 12.6667 8.66665L4.94289 8.66665L7.80482 11.5286C8.06517 11.7889 8.06517 12.211 7.80482 12.4714C7.54447 12.7317 7.12236 12.7317 6.86201 12.4714L2.86201 8.47138C2.73699 8.34636 2.66675 8.17679 2.66675 7.99998C2.66675 7.82317 2.73699 7.6536 2.86201 7.52857L6.86201 3.52858C7.12236 3.26823 7.54447 3.26823 7.80482 3.52858Z" fill="#262626"/>
</svg>
