<svg width="12" height="12" viewBox="0 0 12 12" fill="none" xmlns="http://www.w3.org/2000/svg">
<path d="M6 1C6.27614 1 6.5 1.22386 6.5 1.5V2C6.5 2.27614 6.27614 2.5 6 2.5C5.72386 2.5 5.5 2.27614 5.5 2V1.5C5.5 1.22386 5.72386 1 6 1ZM9.53556 2.46446C9.73082 2.65972 9.73082 2.97631 9.53556 3.17157L9.18201 3.52512C8.98674 3.72039 8.67016 3.72039 8.4749 3.52512C8.27964 3.32986 8.27964 3.01328 8.4749 2.81802L8.82845 2.46446C9.02372 2.2692 9.3403 2.2692 9.53556 2.46446ZM2.46446 2.46446C2.65973 2.2692 2.97631 2.2692 3.17157 2.46446L3.52512 2.81802C3.72039 3.01328 3.72039 3.32986 3.52512 3.52512C3.32986 3.72039 3.01328 3.72039 2.81802 3.52512L2.46446 3.17157C2.2692 2.97631 2.2692 2.65973 2.46446 2.46446ZM6 4C4.89543 4 4 4.89543 4 6C4 7.10457 4.89543 8 6 8C7.10457 8 8 7.10457 8 6C8 4.89543 7.10457 4 6 4ZM3 6C3 4.34315 4.34315 3 6 3C7.65685 3 9 4.34315 9 6C9 7.65685 7.65685 9 6 9C4.34315 9 3 7.65685 3 6ZM1 6C1 5.72386 1.22386 5.5 1.5 5.5H2C2.27614 5.5 2.5 5.72386 2.5 6C2.5 6.27614 2.27614 6.5 2 6.5H1.5C1.22386 6.5 1 6.27614 1 6ZM9.5 6C9.5 5.72386 9.72386 5.5 10 5.5H10.5C10.7761 5.5 11 5.72386 11 6C11 6.27614 10.7761 6.5 10.5 6.5H10C9.72386 6.5 9.5 6.27614 9.5 6ZM2.81802 8.47487C3.01328 8.27961 3.32986 8.27961 3.52512 8.47487C3.72039 8.67013 3.72039 8.98671 3.52512 9.18198L3.17157 9.53553C2.97631 9.73079 2.65973 9.73079 2.46446 9.53553C2.2692 9.34027 2.2692 9.02368 2.46446 8.82842L2.81802 8.47487ZM8.4749 9.18198C8.27964 8.98671 8.27964 8.67013 8.4749 8.47487C8.67016 8.27961 8.98674 8.27961 9.18201 8.47487L9.53556 8.82842C9.73082 9.02369 9.73082 9.34027 9.53556 9.53553C9.3403 9.73079 9.02372 9.73079 8.82845 9.53553L8.4749 9.18198ZM6 9.5C6.27614 9.5 6.5 9.72386 6.5 10V10.5C6.5 10.7761 6.27614 11 6 11C5.72386 11 5.5 10.7761 5.5 10.5V10C5.5 9.72386 5.72386 9.5 6 9.5Z" fill="#0D0D0D"/>
</svg>
