<?xml version="1.0" encoding="us-ascii" standalone="no"?><svg xmlns="http://www.w3.org/2000/svg" xmlns:xlink="http://www.w3.org/1999/xlink" contentStyleType="text/css" height="793px" preserveAspectRatio="none" style="width:1353px;height:793px;background:#FFFFFF;" version="1.1" viewBox="0 0 1353 793" width="1353px" zoomAndPan="magnify"><defs/><g><!--class UserAccounts--><g id="elem_UserAccounts"><rect codeLine="1" fill="#F1F1F1" height="129.4844" id="UserAccounts" rx="2.5" ry="2.5" style="stroke:#181818;stroke-width:0.5;" width="182" x="517" y="640.5"/><ellipse cx="555.85" cy="656.5" fill="#ADD1B2" rx="11" ry="11" style="stroke:#181818;stroke-width:1.0;"/><path d="M554.6469,657.375 L556.1,657.375 L556.1,657.4844 C556.1,657.8906 556.1313,658.0469 556.2094,658.2031 C556.3656,658.4531 556.6469,658.6094 556.9438,658.6094 C557.1938,658.6094 557.4594,658.4688 557.6156,658.25 C557.7406,658.0938 557.7719,657.9375 557.7719,657.4844 L557.7719,655.5625 C557.7719,655.4063 557.7719,655.3594 557.7563,655.2031 C557.6938,654.7344 557.3813,654.4219 556.9281,654.4219 C556.6781,654.4219 556.4125,654.5625 556.2406,654.7813 C556.1313,654.9531 556.1,655.1094 556.1,655.5625 L556.1,655.6875 L554.6469,655.6875 L554.6469,653.2813 L558.6313,653.2813 L558.6313,654.1406 C558.6313,654.5469 558.6625,654.7188 558.7406,654.875 C558.9125,655.125 559.1938,655.2813 559.475,655.2813 C559.7406,655.2813 560.0063,655.1406 560.1781,654.9219 C560.2875,654.75 560.3188,654.6094 560.3188,654.1406 L560.3188,651.5938 L552.6938,651.5938 C552.2563,651.5938 552.1313,651.6094 551.975,651.7031 C551.725,651.8594 551.5688,652.1563 551.5688,652.4375 C551.5688,652.7188 551.7094,652.9688 551.9281,653.1406 C552.0844,653.25 552.2719,653.2813 552.6938,653.2813 L552.9438,653.2813 L552.9438,659.7969 L552.6938,659.7969 C552.2875,659.7969 552.1313,659.8125 551.975,659.9219 C551.725,660.0938 551.5688,660.3594 551.5688,660.6563 C551.5688,660.9219 551.7094,661.1719 551.9281,661.3281 C552.0688,661.4531 552.3031,661.5 552.6938,661.5 L560.6938,661.5 L560.6938,658.9219 C560.6938,658.4844 560.6625,658.3438 560.5844,658.1875 C560.4125,657.9375 560.1313,657.7813 559.85,657.7813 C559.5844,657.7813 559.3188,657.8906 559.1469,658.1406 C559.0375,658.2969 559.0063,658.4375 559.0063,658.9219 L559.0063,659.7969 L554.6469,659.7969 L554.6469,657.375 Z " fill="#000000"/><text fill="#000000" font-family="sans-serif" font-size="14" lengthAdjust="spacing" textLength="97" x="575.15" y="661.3467">UserAccounts</text><line style="stroke:#181818;stroke-width:0.5;" x1="518" x2="698" y1="672.5" y2="672.5"/><text fill="#000000" font-family="sans-serif" font-size="14" lengthAdjust="spacing" textLength="132" x="523" y="689.4951">id: ID &#171;generated&#187;</text><text fill="#000000" font-family="sans-serif" font-size="14" lengthAdjust="spacing" textLength="158" x="523" y="705.792">created_at: DateTime</text><text fill="#000000" font-family="sans-serif" font-size="14" lengthAdjust="spacing" textLength="162" x="523" y="722.0889">updated_at: DateTime</text><text fill="#000000" font-family="sans-serif" font-size="14" lengthAdjust="spacing" textLength="170" x="523" y="738.3857">ethereumAddress: Text</text><text fill="#000000" font-family="sans-serif" font-size="14" lengthAdjust="spacing" textLength="143" x="523" y="754.6826">is_blocked: boolean</text><line style="stroke:#181818;stroke-width:0.5;" x1="518" x2="698" y1="761.9844" y2="761.9844"/></g><!--class Reviewers--><g id="elem_Reviewers"><rect codeLine="9" fill="#F1F1F1" height="96.8906" id="Reviewers" rx="2.5" ry="2.5" style="stroke:#181818;stroke-width:0.5;" width="182" x="661" y="434.5"/><ellipse cx="711.25" cy="450.5" fill="#ADD1B2" rx="11" ry="11" style="stroke:#181818;stroke-width:1.0;"/><path d="M710.0469,451.375 L711.5,451.375 L711.5,451.4844 C711.5,451.8906 711.5313,452.0469 711.6094,452.2031 C711.7656,452.4531 712.0469,452.6094 712.3438,452.6094 C712.5938,452.6094 712.8594,452.4688 713.0156,452.25 C713.1406,452.0938 713.1719,451.9375 713.1719,451.4844 L713.1719,449.5625 C713.1719,449.4063 713.1719,449.3594 713.1563,449.2031 C713.0938,448.7344 712.7813,448.4219 712.3281,448.4219 C712.0781,448.4219 711.8125,448.5625 711.6406,448.7813 C711.5313,448.9531 711.5,449.1094 711.5,449.5625 L711.5,449.6875 L710.0469,449.6875 L710.0469,447.2813 L714.0313,447.2813 L714.0313,448.1406 C714.0313,448.5469 714.0625,448.7188 714.1406,448.875 C714.3125,449.125 714.5938,449.2813 714.875,449.2813 C715.1406,449.2813 715.4063,449.1406 715.5781,448.9219 C715.6875,448.75 715.7188,448.6094 715.7188,448.1406 L715.7188,445.5938 L708.0938,445.5938 C707.6563,445.5938 707.5313,445.6094 707.375,445.7031 C707.125,445.8594 706.9688,446.1563 706.9688,446.4375 C706.9688,446.7188 707.1094,446.9688 707.3281,447.1406 C707.4844,447.25 707.6719,447.2813 708.0938,447.2813 L708.3438,447.2813 L708.3438,453.7969 L708.0938,453.7969 C707.6875,453.7969 707.5313,453.8125 707.375,453.9219 C707.125,454.0938 706.9688,454.3594 706.9688,454.6563 C706.9688,454.9219 707.1094,455.1719 707.3281,455.3281 C707.4688,455.4531 707.7031,455.5 708.0938,455.5 L716.0938,455.5 L716.0938,452.9219 C716.0938,452.4844 716.0625,452.3438 715.9844,452.1875 C715.8125,451.9375 715.5313,451.7813 715.25,451.7813 C714.9844,451.7813 714.7188,451.8906 714.5469,452.1406 C714.4375,452.2969 714.4063,452.4375 714.4063,452.9219 L714.4063,453.7969 L710.0469,453.7969 L710.0469,451.375 Z " fill="#000000"/><text fill="#000000" font-family="sans-serif" font-size="14" lengthAdjust="spacing" textLength="73" x="731.75" y="455.3467">Reviewers</text><line style="stroke:#181818;stroke-width:0.5;" x1="662" x2="842" y1="466.5" y2="466.5"/><text fill="#000000" font-family="sans-serif" font-size="14" lengthAdjust="spacing" textLength="132" x="667" y="483.4951">id: ID &#171;generated&#187;</text><text fill="#000000" font-family="sans-serif" font-size="14" lengthAdjust="spacing" textLength="123" x="667" y="499.792">claimed: boolean</text><text fill="#000000" font-family="sans-serif" font-size="14" lengthAdjust="spacing" textLength="170" x="667" y="516.0889">ethereumAddress: Text</text><line style="stroke:#181818;stroke-width:0.5;" x1="662" x2="842" y1="523.3906" y2="523.3906"/></g><!--class Moderators--><g id="elem_Moderators"><rect codeLine="15" fill="#F1F1F1" height="80.5938" id="Moderators" rx="2.5" ry="2.5" style="stroke:#181818;stroke-width:0.5;" width="182" x="7" y="442.5"/><ellipse cx="52.75" cy="458.5" fill="#ADD1B2" rx="11" ry="11" style="stroke:#181818;stroke-width:1.0;"/><path d="M51.5469,459.375 L53,459.375 L53,459.4844 C53,459.8906 53.0313,460.0469 53.1094,460.2031 C53.2656,460.4531 53.5469,460.6094 53.8438,460.6094 C54.0938,460.6094 54.3594,460.4688 54.5156,460.25 C54.6406,460.0938 54.6719,459.9375 54.6719,459.4844 L54.6719,457.5625 C54.6719,457.4063 54.6719,457.3594 54.6563,457.2031 C54.5938,456.7344 54.2813,456.4219 53.8281,456.4219 C53.5781,456.4219 53.3125,456.5625 53.1406,456.7813 C53.0313,456.9531 53,457.1094 53,457.5625 L53,457.6875 L51.5469,457.6875 L51.5469,455.2813 L55.5313,455.2813 L55.5313,456.1406 C55.5313,456.5469 55.5625,456.7188 55.6406,456.875 C55.8125,457.125 56.0938,457.2813 56.375,457.2813 C56.6406,457.2813 56.9063,457.1406 57.0781,456.9219 C57.1875,456.75 57.2188,456.6094 57.2188,456.1406 L57.2188,453.5938 L49.5938,453.5938 C49.1563,453.5938 49.0313,453.6094 48.875,453.7031 C48.625,453.8594 48.4688,454.1563 48.4688,454.4375 C48.4688,454.7188 48.6094,454.9688 48.8281,455.1406 C48.9844,455.25 49.1719,455.2813 49.5938,455.2813 L49.8438,455.2813 L49.8438,461.7969 L49.5938,461.7969 C49.1875,461.7969 49.0313,461.8125 48.875,461.9219 C48.625,462.0938 48.4688,462.3594 48.4688,462.6563 C48.4688,462.9219 48.6094,463.1719 48.8281,463.3281 C48.9688,463.4531 49.2031,463.5 49.5938,463.5 L57.5938,463.5 L57.5938,460.9219 C57.5938,460.4844 57.5625,460.3438 57.4844,460.1875 C57.3125,459.9375 57.0313,459.7813 56.75,459.7813 C56.4844,459.7813 56.2188,459.8906 56.0469,460.1406 C55.9375,460.2969 55.9063,460.4375 55.9063,460.9219 L55.9063,461.7969 L51.5469,461.7969 L51.5469,459.375 Z " fill="#000000"/><text fill="#000000" font-family="sans-serif" font-size="14" lengthAdjust="spacing" textLength="82" x="73.25" y="463.3467">Moderators</text><line style="stroke:#181818;stroke-width:0.5;" x1="8" x2="188" y1="474.5" y2="474.5"/><text fill="#000000" font-family="sans-serif" font-size="14" lengthAdjust="spacing" textLength="132" x="13" y="491.4951">id: ID &#171;generated&#187;</text><text fill="#000000" font-family="sans-serif" font-size="14" lengthAdjust="spacing" textLength="170" x="13" y="507.792">ethereumAddress: Text</text><line style="stroke:#181818;stroke-width:0.5;" x1="8" x2="188" y1="515.0938" y2="515.0938"/></g><!--class Applications--><g id="elem_Applications"><rect codeLine="20" fill="#F1F1F1" height="162.0781" id="Applications" rx="2.5" ry="2.5" style="stroke:#181818;stroke-width:0.5;" width="174" x="878" y="402"/><ellipse cx="916.4" cy="418" fill="#ADD1B2" rx="11" ry="11" style="stroke:#181818;stroke-width:1.0;"/><path d="M915.1969,418.875 L916.65,418.875 L916.65,418.9844 C916.65,419.3906 916.6813,419.5469 916.7594,419.7031 C916.9156,419.9531 917.1969,420.1094 917.4938,420.1094 C917.7438,420.1094 918.0094,419.9688 918.1656,419.75 C918.2906,419.5938 918.3219,419.4375 918.3219,418.9844 L918.3219,417.0625 C918.3219,416.9063 918.3219,416.8594 918.3063,416.7031 C918.2438,416.2344 917.9313,415.9219 917.4781,415.9219 C917.2281,415.9219 916.9625,416.0625 916.7906,416.2813 C916.6813,416.4531 916.65,416.6094 916.65,417.0625 L916.65,417.1875 L915.1969,417.1875 L915.1969,414.7813 L919.1813,414.7813 L919.1813,415.6406 C919.1813,416.0469 919.2125,416.2188 919.2906,416.375 C919.4625,416.625 919.7438,416.7813 920.025,416.7813 C920.2906,416.7813 920.5563,416.6406 920.7281,416.4219 C920.8375,416.25 920.8688,416.1094 920.8688,415.6406 L920.8688,413.0938 L913.2438,413.0938 C912.8063,413.0938 912.6813,413.1094 912.525,413.2031 C912.275,413.3594 912.1188,413.6563 912.1188,413.9375 C912.1188,414.2188 912.2594,414.4688 912.4781,414.6406 C912.6344,414.75 912.8219,414.7813 913.2438,414.7813 L913.4938,414.7813 L913.4938,421.2969 L913.2438,421.2969 C912.8375,421.2969 912.6813,421.3125 912.525,421.4219 C912.275,421.5938 912.1188,421.8594 912.1188,422.1563 C912.1188,422.4219 912.2594,422.6719 912.4781,422.8281 C912.6188,422.9531 912.8531,423 913.2438,423 L921.2438,423 L921.2438,420.4219 C921.2438,419.9844 921.2125,419.8438 921.1344,419.6875 C920.9625,419.4375 920.6813,419.2813 920.4,419.2813 C920.1344,419.2813 919.8688,419.3906 919.6969,419.6406 C919.5875,419.7969 919.5563,419.9375 919.5563,420.4219 L919.5563,421.2969 L915.1969,421.2969 L915.1969,418.875 Z " fill="#000000"/><text fill="#000000" font-family="sans-serif" font-size="14" lengthAdjust="spacing" textLength="90" x="935.6" y="422.8467">Applications</text><line style="stroke:#181818;stroke-width:0.5;" x1="879" x2="1051" y1="434" y2="434"/><text fill="#000000" font-family="sans-serif" font-size="14" lengthAdjust="spacing" textLength="132" x="884" y="450.9951">id: ID &#171;generated&#187;</text><text fill="#000000" font-family="sans-serif" font-size="14" lengthAdjust="spacing" textLength="158" x="884" y="467.292">created_at: DateTime</text><text fill="#000000" font-family="sans-serif" font-size="14" lengthAdjust="spacing" textLength="162" x="884" y="483.5889">updated_at: DateTime</text><text fill="#000000" font-family="sans-serif" font-size="14" lengthAdjust="spacing" textLength="82" x="884" y="499.8857">name: Text</text><line style="stroke:#181818;stroke-width:1.0;" x1="879" x2="1051" y1="507.1875" y2="507.1875"/><text fill="#000000" font-family="sans-serif" font-size="14" lengthAdjust="spacing" textLength="118" x="884" y="524.1826">wave_id: ID &#171;FK&#187;</text><text fill="#000000" font-family="sans-serif" font-size="14" lengthAdjust="spacing" textLength="112" x="884" y="540.4795">user_id: ID &#171;FK&#187;</text><text fill="#000000" font-family="sans-serif" font-size="14" lengthAdjust="spacing" textLength="146" x="884" y="556.7764">category_id: ID &#171;FK&#187;</text></g><!--class ApplicationContacts--><g id="elem_ApplicationContacts"><rect codeLine="32" fill="#F1F1F1" height="162.0781" id="ApplicationContacts" rx="2.5" ry="2.5" style="stroke:#181818;stroke-width:0.5;" width="180" x="947" y="180"/><ellipse cx="962" cy="196" fill="#ADD1B2" rx="11" ry="11" style="stroke:#181818;stroke-width:1.0;"/><path d="M960.7969,196.875 L962.25,196.875 L962.25,196.9844 C962.25,197.3906 962.2813,197.5469 962.3594,197.7031 C962.5156,197.9531 962.7969,198.1094 963.0938,198.1094 C963.3438,198.1094 963.6094,197.9688 963.7656,197.75 C963.8906,197.5938 963.9219,197.4375 963.9219,196.9844 L963.9219,195.0625 C963.9219,194.9063 963.9219,194.8594 963.9063,194.7031 C963.8438,194.2344 963.5313,193.9219 963.0781,193.9219 C962.8281,193.9219 962.5625,194.0625 962.3906,194.2813 C962.2813,194.4531 962.25,194.6094 962.25,195.0625 L962.25,195.1875 L960.7969,195.1875 L960.7969,192.7813 L964.7813,192.7813 L964.7813,193.6406 C964.7813,194.0469 964.8125,194.2188 964.8906,194.375 C965.0625,194.625 965.3438,194.7813 965.625,194.7813 C965.8906,194.7813 966.1563,194.6406 966.3281,194.4219 C966.4375,194.25 966.4688,194.1094 966.4688,193.6406 L966.4688,191.0938 L958.8438,191.0938 C958.4063,191.0938 958.2813,191.1094 958.125,191.2031 C957.875,191.3594 957.7188,191.6563 957.7188,191.9375 C957.7188,192.2188 957.8594,192.4688 958.0781,192.6406 C958.2344,192.75 958.4219,192.7813 958.8438,192.7813 L959.0938,192.7813 L959.0938,199.2969 L958.8438,199.2969 C958.4375,199.2969 958.2813,199.3125 958.125,199.4219 C957.875,199.5938 957.7188,199.8594 957.7188,200.1563 C957.7188,200.4219 957.8594,200.6719 958.0781,200.8281 C958.2188,200.9531 958.4531,201 958.8438,201 L966.8438,201 L966.8438,198.4219 C966.8438,197.9844 966.8125,197.8438 966.7344,197.6875 C966.5625,197.4375 966.2813,197.2813 966,197.2813 C965.7344,197.2813 965.4688,197.3906 965.2969,197.6406 C965.1875,197.7969 965.1563,197.9375 965.1563,198.4219 L965.1563,199.2969 L960.7969,199.2969 L960.7969,196.875 Z " fill="#000000"/><text fill="#000000" font-family="sans-serif" font-size="14" lengthAdjust="spacing" textLength="148" x="976" y="200.8467">ApplicationContacts</text><line style="stroke:#181818;stroke-width:0.5;" x1="948" x2="1126" y1="212" y2="212"/><text fill="#000000" font-family="sans-serif" font-size="14" lengthAdjust="spacing" textLength="132" x="953" y="228.9951">id: ID &#171;generated&#187;</text><text fill="#000000" font-family="sans-serif" font-size="14" lengthAdjust="spacing" textLength="158" x="953" y="245.292">created_at: DateTime</text><text fill="#000000" font-family="sans-serif" font-size="14" lengthAdjust="spacing" textLength="162" x="953" y="261.5889">updated_at: DateTime</text><text fill="#000000" font-family="sans-serif" font-size="14" lengthAdjust="spacing" textLength="82" x="953" y="277.8857">name: Text</text><text fill="#000000" font-family="sans-serif" font-size="14" lengthAdjust="spacing" textLength="81" x="953" y="294.1826">email: Text</text><line style="stroke:#181818;stroke-width:1.0;" x1="948" x2="1126" y1="301.4844" y2="301.4844"/><text fill="#000000" font-family="sans-serif" font-size="14" lengthAdjust="spacing" textLength="163" x="953" y="318.4795">application_id: ID &#171;FK&#187;</text><text fill="#000000" font-family="sans-serif" font-size="14" lengthAdjust="spacing" textLength="4" x="953" y="334.7764">&#160;</text></g><!--class ApplicationCategories--><g id="elem_ApplicationCategories"><rect codeLine="43" fill="#F1F1F1" height="80.5938" id="ApplicationCategories" rx="2.5" ry="2.5" style="stroke:#181818;stroke-width:0.5;" width="193" x="868.5" y="664.5"/><ellipse cx="883.5" cy="680.5" fill="#ADD1B2" rx="11" ry="11" style="stroke:#181818;stroke-width:1.0;"/><path d="M882.2969,681.375 L883.75,681.375 L883.75,681.4844 C883.75,681.8906 883.7813,682.0469 883.8594,682.2031 C884.0156,682.4531 884.2969,682.6094 884.5938,682.6094 C884.8438,682.6094 885.1094,682.4688 885.2656,682.25 C885.3906,682.0938 885.4219,681.9375 885.4219,681.4844 L885.4219,679.5625 C885.4219,679.4063 885.4219,679.3594 885.4063,679.2031 C885.3438,678.7344 885.0313,678.4219 884.5781,678.4219 C884.3281,678.4219 884.0625,678.5625 883.8906,678.7813 C883.7813,678.9531 883.75,679.1094 883.75,679.5625 L883.75,679.6875 L882.2969,679.6875 L882.2969,677.2813 L886.2813,677.2813 L886.2813,678.1406 C886.2813,678.5469 886.3125,678.7188 886.3906,678.875 C886.5625,679.125 886.8438,679.2813 887.125,679.2813 C887.3906,679.2813 887.6563,679.1406 887.8281,678.9219 C887.9375,678.75 887.9688,678.6094 887.9688,678.1406 L887.9688,675.5938 L880.3438,675.5938 C879.9063,675.5938 879.7813,675.6094 879.625,675.7031 C879.375,675.8594 879.2188,676.1563 879.2188,676.4375 C879.2188,676.7188 879.3594,676.9688 879.5781,677.1406 C879.7344,677.25 879.9219,677.2813 880.3438,677.2813 L880.5938,677.2813 L880.5938,683.7969 L880.3438,683.7969 C879.9375,683.7969 879.7813,683.8125 879.625,683.9219 C879.375,684.0938 879.2188,684.3594 879.2188,684.6563 C879.2188,684.9219 879.3594,685.1719 879.5781,685.3281 C879.7188,685.4531 879.9531,685.5 880.3438,685.5 L888.3438,685.5 L888.3438,682.9219 C888.3438,682.4844 888.3125,682.3438 888.2344,682.1875 C888.0625,681.9375 887.7813,681.7813 887.5,681.7813 C887.2344,681.7813 886.9688,681.8906 886.7969,682.1406 C886.6875,682.2969 886.6563,682.4375 886.6563,682.9219 L886.6563,683.7969 L882.2969,683.7969 L882.2969,681.375 Z " fill="#000000"/><text fill="#000000" font-family="sans-serif" font-size="14" lengthAdjust="spacing" textLength="161" x="897.5" y="685.3467">ApplicationCategories</text><line style="stroke:#181818;stroke-width:0.5;" x1="869.5" x2="1060.5" y1="696.5" y2="696.5"/><text fill="#000000" font-family="sans-serif" font-size="14" lengthAdjust="spacing" textLength="132" x="874.5" y="713.4951">id: ID &#171;generated&#187;</text><text fill="#000000" font-family="sans-serif" font-size="14" lengthAdjust="spacing" textLength="82" x="874.5" y="729.792">name: Text</text><line style="stroke:#181818;stroke-width:0.5;" x1="869.5" x2="1060.5" y1="737.0938" y2="737.0938"/></g><!--class ApplicationValue--><g id="elem_ApplicationValue"><rect codeLine="48" fill="#F1F1F1" height="113.1875" id="ApplicationValue" rx="2.5" ry="2.5" style="stroke:#181818;stroke-width:0.5;" width="263" x="295.5" y="204.5"/><ellipse cx="361.75" cy="220.5" fill="#ADD1B2" rx="11" ry="11" style="stroke:#181818;stroke-width:1.0;"/><path d="M360.5469,221.375 L362,221.375 L362,221.4844 C362,221.8906 362.0313,222.0469 362.1094,222.2031 C362.2656,222.4531 362.5469,222.6094 362.8438,222.6094 C363.0938,222.6094 363.3594,222.4688 363.5156,222.25 C363.6406,222.0938 363.6719,221.9375 363.6719,221.4844 L363.6719,219.5625 C363.6719,219.4063 363.6719,219.3594 363.6563,219.2031 C363.5938,218.7344 363.2813,218.4219 362.8281,218.4219 C362.5781,218.4219 362.3125,218.5625 362.1406,218.7813 C362.0313,218.9531 362,219.1094 362,219.5625 L362,219.6875 L360.5469,219.6875 L360.5469,217.2813 L364.5313,217.2813 L364.5313,218.1406 C364.5313,218.5469 364.5625,218.7188 364.6406,218.875 C364.8125,219.125 365.0938,219.2813 365.375,219.2813 C365.6406,219.2813 365.9063,219.1406 366.0781,218.9219 C366.1875,218.75 366.2188,218.6094 366.2188,218.1406 L366.2188,215.5938 L358.5938,215.5938 C358.1563,215.5938 358.0313,215.6094 357.875,215.7031 C357.625,215.8594 357.4688,216.1563 357.4688,216.4375 C357.4688,216.7188 357.6094,216.9688 357.8281,217.1406 C357.9844,217.25 358.1719,217.2813 358.5938,217.2813 L358.8438,217.2813 L358.8438,223.7969 L358.5938,223.7969 C358.1875,223.7969 358.0313,223.8125 357.875,223.9219 C357.625,224.0938 357.4688,224.3594 357.4688,224.6563 C357.4688,224.9219 357.6094,225.1719 357.8281,225.3281 C357.9688,225.4531 358.2031,225.5 358.5938,225.5 L366.5938,225.5 L366.5938,222.9219 C366.5938,222.4844 366.5625,222.3438 366.4844,222.1875 C366.3125,221.9375 366.0313,221.7813 365.75,221.7813 C365.4844,221.7813 365.2188,221.8906 365.0469,222.1406 C364.9375,222.2969 364.9063,222.4375 364.9063,222.9219 L364.9063,223.7969 L360.5469,223.7969 L360.5469,221.375 Z " fill="#000000"/><text fill="#000000" font-family="sans-serif" font-size="14" lengthAdjust="spacing" textLength="122" x="382.25" y="225.3467">ApplicationValue</text><line style="stroke:#181818;stroke-width:0.5;" x1="296.5" x2="557.5" y1="236.5" y2="236.5"/><text fill="#000000" font-family="sans-serif" font-size="14" lengthAdjust="spacing" textLength="163" x="301.5" y="253.4951">application_id: ID &#171;FK&#187;</text><text fill="#000000" font-family="sans-serif" font-size="14" lengthAdjust="spacing" textLength="112" x="301.5" y="269.792">user_id: ID &#171;FK&#187;</text><text fill="#000000" font-family="sans-serif" font-size="14" lengthAdjust="spacing" textLength="145" x="301.5" y="286.0889">value: ContentValue</text><line style="stroke:#181818;stroke-width:1.0;" x1="296.5" x2="557.5" y1="293.3906" y2="293.3906"/><text fill="#000000" font-family="sans-serif" font-size="14" lengthAdjust="spacing" textLength="251" x="301.5" y="310.3857">PrimaryKey(application_id, user_id)</text></g><!--class Comments--><g id="elem_Comments"><rect codeLine="56" fill="#F1F1F1" height="129.4844" id="Comments" rx="2.5" ry="2.5" style="stroke:#181818;stroke-width:0.5;" width="175" x="665.5" y="196.5"/><ellipse cx="709.3" cy="212.5" fill="#ADD1B2" rx="11" ry="11" style="stroke:#181818;stroke-width:1.0;"/><path d="M708.0969,213.375 L709.55,213.375 L709.55,213.4844 C709.55,213.8906 709.5813,214.0469 709.6594,214.2031 C709.8156,214.4531 710.0969,214.6094 710.3938,214.6094 C710.6438,214.6094 710.9094,214.4688 711.0656,214.25 C711.1906,214.0938 711.2219,213.9375 711.2219,213.4844 L711.2219,211.5625 C711.2219,211.4063 711.2219,211.3594 711.2063,211.2031 C711.1438,210.7344 710.8313,210.4219 710.3781,210.4219 C710.1281,210.4219 709.8625,210.5625 709.6906,210.7813 C709.5813,210.9531 709.55,211.1094 709.55,211.5625 L709.55,211.6875 L708.0969,211.6875 L708.0969,209.2813 L712.0813,209.2813 L712.0813,210.1406 C712.0813,210.5469 712.1125,210.7188 712.1906,210.875 C712.3625,211.125 712.6438,211.2813 712.925,211.2813 C713.1906,211.2813 713.4563,211.1406 713.6281,210.9219 C713.7375,210.75 713.7688,210.6094 713.7688,210.1406 L713.7688,207.5938 L706.1438,207.5938 C705.7063,207.5938 705.5813,207.6094 705.425,207.7031 C705.175,207.8594 705.0188,208.1563 705.0188,208.4375 C705.0188,208.7188 705.1594,208.9688 705.3781,209.1406 C705.5344,209.25 705.7219,209.2813 706.1438,209.2813 L706.3938,209.2813 L706.3938,215.7969 L706.1438,215.7969 C705.7375,215.7969 705.5813,215.8125 705.425,215.9219 C705.175,216.0938 705.0188,216.3594 705.0188,216.6563 C705.0188,216.9219 705.1594,217.1719 705.3781,217.3281 C705.5188,217.4531 705.7531,217.5 706.1438,217.5 L714.1438,217.5 L714.1438,214.9219 C714.1438,214.4844 714.1125,214.3438 714.0344,214.1875 C713.8625,213.9375 713.5813,213.7813 713.3,213.7813 C713.0344,213.7813 712.7688,213.8906 712.5969,214.1406 C712.4875,214.2969 712.4563,214.4375 712.4563,214.9219 L712.4563,215.7969 L708.0969,215.7969 L708.0969,213.375 Z " fill="#000000"/><text fill="#000000" font-family="sans-serif" font-size="14" lengthAdjust="spacing" textLength="79" x="729.7" y="217.3467">Comments</text><line style="stroke:#181818;stroke-width:0.5;" x1="666.5" x2="839.5" y1="228.5" y2="228.5"/><text fill="#000000" font-family="sans-serif" font-size="14" lengthAdjust="spacing" textLength="132" x="671.5" y="245.4951">id: ID &#171;generated&#187;</text><text fill="#000000" font-family="sans-serif" font-size="14" lengthAdjust="spacing" textLength="158" x="671.5" y="261.792">created_at: DateTime</text><text fill="#000000" font-family="sans-serif" font-size="14" lengthAdjust="spacing" textLength="162" x="671.5" y="278.0889">updated_at: DateTime</text><line style="stroke:#181818;stroke-width:1.0;" x1="666.5" x2="839.5" y1="285.3906" y2="285.3906"/><text fill="#000000" font-family="sans-serif" font-size="14" lengthAdjust="spacing" textLength="163" x="671.5" y="302.3857">application_id: ID &#171;FK&#187;</text><text fill="#000000" font-family="sans-serif" font-size="14" lengthAdjust="spacing" textLength="112" x="671.5" y="318.6826">user_id: ID &#171;FK&#187;</text></g><!--class CommentValue--><g id="elem_CommentValue"><rect codeLine="65" fill="#F1F1F1" height="113.1875" id="CommentValue" rx="2.5" ry="2.5" style="stroke:#181818;stroke-width:0.5;" width="252" x="472" y="7"/><ellipse cx="538.25" cy="23" fill="#ADD1B2" rx="11" ry="11" style="stroke:#181818;stroke-width:1.0;"/><path d="M537.0469,23.875 L538.5,23.875 L538.5,23.9844 C538.5,24.3906 538.5313,24.5469 538.6094,24.7031 C538.7656,24.9531 539.0469,25.1094 539.3438,25.1094 C539.5938,25.1094 539.8594,24.9688 540.0156,24.75 C540.1406,24.5938 540.1719,24.4375 540.1719,23.9844 L540.1719,22.0625 C540.1719,21.9063 540.1719,21.8594 540.1563,21.7031 C540.0938,21.2344 539.7813,20.9219 539.3281,20.9219 C539.0781,20.9219 538.8125,21.0625 538.6406,21.2813 C538.5313,21.4531 538.5,21.6094 538.5,22.0625 L538.5,22.1875 L537.0469,22.1875 L537.0469,19.7813 L541.0313,19.7813 L541.0313,20.6406 C541.0313,21.0469 541.0625,21.2188 541.1406,21.375 C541.3125,21.625 541.5938,21.7813 541.875,21.7813 C542.1406,21.7813 542.4063,21.6406 542.5781,21.4219 C542.6875,21.25 542.7188,21.1094 542.7188,20.6406 L542.7188,18.0938 L535.0938,18.0938 C534.6563,18.0938 534.5313,18.1094 534.375,18.2031 C534.125,18.3594 533.9688,18.6563 533.9688,18.9375 C533.9688,19.2188 534.1094,19.4688 534.3281,19.6406 C534.4844,19.75 534.6719,19.7813 535.0938,19.7813 L535.3438,19.7813 L535.3438,26.2969 L535.0938,26.2969 C534.6875,26.2969 534.5313,26.3125 534.375,26.4219 C534.125,26.5938 533.9688,26.8594 533.9688,27.1563 C533.9688,27.4219 534.1094,27.6719 534.3281,27.8281 C534.4688,27.9531 534.7031,28 535.0938,28 L543.0938,28 L543.0938,25.4219 C543.0938,24.9844 543.0625,24.8438 542.9844,24.6875 C542.8125,24.4375 542.5313,24.2813 542.25,24.2813 C541.9844,24.2813 541.7188,24.3906 541.5469,24.6406 C541.4375,24.7969 541.4063,24.9375 541.4063,25.4219 L541.4063,26.2969 L537.0469,26.2969 L537.0469,23.875 Z " fill="#000000"/><text fill="#000000" font-family="sans-serif" font-size="14" lengthAdjust="spacing" textLength="111" x="558.75" y="27.8467">CommentValue</text><line style="stroke:#181818;stroke-width:0.5;" x1="473" x2="723" y1="39" y2="39"/><text fill="#000000" font-family="sans-serif" font-size="14" lengthAdjust="spacing" textLength="152" x="478" y="55.9951">comment_id: ID &#171;FK&#187;</text><text fill="#000000" font-family="sans-serif" font-size="14" lengthAdjust="spacing" textLength="112" x="478" y="72.292">user_id: ID &#171;FK&#187;</text><text fill="#000000" font-family="sans-serif" font-size="14" lengthAdjust="spacing" textLength="145" x="478" y="88.5889">value: ContentValue</text><line style="stroke:#181818;stroke-width:1.0;" x1="473" x2="723" y1="95.8906" y2="95.8906"/><text fill="#000000" font-family="sans-serif" font-size="14" lengthAdjust="spacing" textLength="240" x="478" y="112.8857">PrimaryKey(comment_id, user_id)</text></g><!--class ContentValue--><g id="elem_ContentValue"><rect codeLine="73" fill="#F1F1F1" height="80.5938" id="ContentValue" rx="2.5" ry="2.5" style="stroke:#181818;stroke-width:0.5;" width="131" x="423.5" y="442.5"/><ellipse cx="438.5" cy="458.5" fill="#EB937F" rx="11" ry="11" style="stroke:#181818;stroke-width:1.0;"/><path d="M437.2969,459.375 L438.75,459.375 L438.75,459.4844 C438.75,459.8906 438.7813,460.0469 438.8594,460.2031 C439.0156,460.4531 439.2969,460.6094 439.5938,460.6094 C439.8438,460.6094 440.1094,460.4688 440.2656,460.25 C440.3906,460.0938 440.4219,459.9375 440.4219,459.4844 L440.4219,457.5625 C440.4219,457.4063 440.4219,457.3594 440.4063,457.2031 C440.3438,456.7344 440.0313,456.4219 439.5781,456.4219 C439.3281,456.4219 439.0625,456.5625 438.8906,456.7813 C438.7813,456.9531 438.75,457.1094 438.75,457.5625 L438.75,457.6875 L437.2969,457.6875 L437.2969,455.2813 L441.2813,455.2813 L441.2813,456.1406 C441.2813,456.5469 441.3125,456.7188 441.3906,456.875 C441.5625,457.125 441.8438,457.2813 442.125,457.2813 C442.3906,457.2813 442.6563,457.1406 442.8281,456.9219 C442.9375,456.75 442.9688,456.6094 442.9688,456.1406 L442.9688,453.5938 L435.3438,453.5938 C434.9063,453.5938 434.7813,453.6094 434.625,453.7031 C434.375,453.8594 434.2188,454.1563 434.2188,454.4375 C434.2188,454.7188 434.3594,454.9688 434.5781,455.1406 C434.7344,455.25 434.9219,455.2813 435.3438,455.2813 L435.5938,455.2813 L435.5938,461.7969 L435.3438,461.7969 C434.9375,461.7969 434.7813,461.8125 434.625,461.9219 C434.375,462.0938 434.2188,462.3594 434.2188,462.6563 C434.2188,462.9219 434.3594,463.1719 434.5781,463.3281 C434.7188,463.4531 434.9531,463.5 435.3438,463.5 L443.3438,463.5 L443.3438,460.9219 C443.3438,460.4844 443.3125,460.3438 443.2344,460.1875 C443.0625,459.9375 442.7813,459.7813 442.5,459.7813 C442.2344,459.7813 441.9688,459.8906 441.7969,460.1406 C441.6875,460.2969 441.6563,460.4375 441.6563,460.9219 L441.6563,461.7969 L437.2969,461.7969 L437.2969,459.375 Z " fill="#000000"/><text fill="#000000" font-family="sans-serif" font-size="14" lengthAdjust="spacing" textLength="99" x="452.5" y="463.3467">ContentValue</text><line style="stroke:#181818;stroke-width:0.5;" x1="424.5" x2="553.5" y1="474.5" y2="474.5"/><text fill="#000000" font-family="sans-serif" font-size="14" lengthAdjust="spacing" textLength="65" x="429.5" y="491.4951">POSITIVE</text><text fill="#000000" font-family="sans-serif" font-size="14" lengthAdjust="spacing" textLength="40" x="429.5" y="507.792">SPAM</text><line style="stroke:#181818;stroke-width:0.5;" x1="424.5" x2="553.5" y1="515.0938" y2="515.0938"/></g><!--class Reviews--><g id="elem_Reviews"><rect codeLine="78" fill="#F1F1F1" height="113.1875" id="Reviews" rx="2.5" ry="2.5" style="stroke:#181818;stroke-width:0.5;" width="295" x="759.5" y="7"/><ellipse cx="873.75" cy="23" fill="#ADD1B2" rx="11" ry="11" style="stroke:#181818;stroke-width:1.0;"/><path d="M872.5469,23.875 L874,23.875 L874,23.9844 C874,24.3906 874.0313,24.5469 874.1094,24.7031 C874.2656,24.9531 874.5469,25.1094 874.8438,25.1094 C875.0938,25.1094 875.3594,24.9688 875.5156,24.75 C875.6406,24.5938 875.6719,24.4375 875.6719,23.9844 L875.6719,22.0625 C875.6719,21.9063 875.6719,21.8594 875.6563,21.7031 C875.5938,21.2344 875.2813,20.9219 874.8281,20.9219 C874.5781,20.9219 874.3125,21.0625 874.1406,21.2813 C874.0313,21.4531 874,21.6094 874,22.0625 L874,22.1875 L872.5469,22.1875 L872.5469,19.7813 L876.5313,19.7813 L876.5313,20.6406 C876.5313,21.0469 876.5625,21.2188 876.6406,21.375 C876.8125,21.625 877.0938,21.7813 877.375,21.7813 C877.6406,21.7813 877.9063,21.6406 878.0781,21.4219 C878.1875,21.25 878.2188,21.1094 878.2188,20.6406 L878.2188,18.0938 L870.5938,18.0938 C870.1563,18.0938 870.0313,18.1094 869.875,18.2031 C869.625,18.3594 869.4688,18.6563 869.4688,18.9375 C869.4688,19.2188 869.6094,19.4688 869.8281,19.6406 C869.9844,19.75 870.1719,19.7813 870.5938,19.7813 L870.8438,19.7813 L870.8438,26.2969 L870.5938,26.2969 C870.1875,26.2969 870.0313,26.3125 869.875,26.4219 C869.625,26.5938 869.4688,26.8594 869.4688,27.1563 C869.4688,27.4219 869.6094,27.6719 869.8281,27.8281 C869.9688,27.9531 870.2031,28 870.5938,28 L878.5938,28 L878.5938,25.4219 C878.5938,24.9844 878.5625,24.8438 878.4844,24.6875 C878.3125,24.4375 878.0313,24.2813 877.75,24.2813 C877.4844,24.2813 877.2188,24.3906 877.0469,24.6406 C876.9375,24.7969 876.9063,24.9375 876.9063,25.4219 L876.9063,26.2969 L872.5469,26.2969 L872.5469,23.875 Z " fill="#000000"/><text fill="#000000" font-family="sans-serif" font-size="14" lengthAdjust="spacing" textLength="58" x="894.25" y="27.8467">Reviews</text><line style="stroke:#181818;stroke-width:0.5;" x1="760.5" x2="1053.5" y1="39" y2="39"/><text fill="#000000" font-family="sans-serif" font-size="14" lengthAdjust="spacing" textLength="152" x="765.5" y="55.9951">comment_id: ID &#171;FK&#187;</text><text fill="#000000" font-family="sans-serif" font-size="14" lengthAdjust="spacing" textLength="163" x="765.5" y="72.292">application_id: ID &#171;FK&#187;</text><text fill="#000000" font-family="sans-serif" font-size="14" lengthAdjust="spacing" textLength="144" x="765.5" y="88.5889">reviewer_id: ID &#171;FK&#187;</text><line style="stroke:#181818;stroke-width:0.5;" x1="760.5" x2="1053.5" y1="95.8906" y2="95.8906"/><text fill="#000000" font-family="sans-serif" font-size="14" lengthAdjust="spacing" textLength="283" x="765.5" y="112.8857">PrimaryKey(reviewer_id, application_id)</text></g><!--class Wave--><g id="elem_Wave"><rect codeLine="86" fill="#F1F1F1" height="162.0781" id="Wave" rx="2.5" ry="2.5" style="stroke:#181818;stroke-width:0.5;" width="174" x="1150" y="624"/><ellipse cx="1213.25" cy="640" fill="#ADD1B2" rx="11" ry="11" style="stroke:#181818;stroke-width:1.0;"/><path d="M1212.0469,640.875 L1213.5,640.875 L1213.5,640.9844 C1213.5,641.3906 1213.5313,641.5469 1213.6094,641.7031 C1213.7656,641.9531 1214.0469,642.1094 1214.3438,642.1094 C1214.5938,642.1094 1214.8594,641.9688 1215.0156,641.75 C1215.1406,641.5938 1215.1719,641.4375 1215.1719,640.9844 L1215.1719,639.0625 C1215.1719,638.9063 1215.1719,638.8594 1215.1563,638.7031 C1215.0938,638.2344 1214.7813,637.9219 1214.3281,637.9219 C1214.0781,637.9219 1213.8125,638.0625 1213.6406,638.2813 C1213.5313,638.4531 1213.5,638.6094 1213.5,639.0625 L1213.5,639.1875 L1212.0469,639.1875 L1212.0469,636.7813 L1216.0313,636.7813 L1216.0313,637.6406 C1216.0313,638.0469 1216.0625,638.2188 1216.1406,638.375 C1216.3125,638.625 1216.5938,638.7813 1216.875,638.7813 C1217.1406,638.7813 1217.4063,638.6406 1217.5781,638.4219 C1217.6875,638.25 1217.7188,638.1094 1217.7188,637.6406 L1217.7188,635.0938 L1210.0938,635.0938 C1209.6563,635.0938 1209.5313,635.1094 1209.375,635.2031 C1209.125,635.3594 1208.9688,635.6563 1208.9688,635.9375 C1208.9688,636.2188 1209.1094,636.4688 1209.3281,636.6406 C1209.4844,636.75 1209.6719,636.7813 1210.0938,636.7813 L1210.3438,636.7813 L1210.3438,643.2969 L1210.0938,643.2969 C1209.6875,643.2969 1209.5313,643.3125 1209.375,643.4219 C1209.125,643.5938 1208.9688,643.8594 1208.9688,644.1563 C1208.9688,644.4219 1209.1094,644.6719 1209.3281,644.8281 C1209.4688,644.9531 1209.7031,645 1210.0938,645 L1218.0938,645 L1218.0938,642.4219 C1218.0938,641.9844 1218.0625,641.8438 1217.9844,641.6875 C1217.8125,641.4375 1217.5313,641.2813 1217.25,641.2813 C1216.9844,641.2813 1216.7188,641.3906 1216.5469,641.6406 C1216.4375,641.7969 1216.4063,641.9375 1216.4063,642.4219 L1216.4063,643.2969 L1212.0469,643.2969 L1212.0469,640.875 Z " fill="#000000"/><text fill="#000000" font-family="sans-serif" font-size="14" lengthAdjust="spacing" textLength="39" x="1233.75" y="644.8467">Wave</text><line style="stroke:#181818;stroke-width:0.5;" x1="1151" x2="1323" y1="656" y2="656"/><text fill="#000000" font-family="sans-serif" font-size="14" lengthAdjust="spacing" textLength="132" x="1156" y="672.9951">id: ID &#171;generated&#187;</text><text fill="#000000" font-family="sans-serif" font-size="14" lengthAdjust="spacing" textLength="158" x="1156" y="689.292">created_at: DateTime</text><text fill="#000000" font-family="sans-serif" font-size="14" lengthAdjust="spacing" textLength="162" x="1156" y="705.5889">updated_at: DateTime</text><text fill="#000000" font-family="sans-serif" font-size="14" lengthAdjust="spacing" textLength="82" x="1156" y="721.8857">name: Text</text><text fill="#000000" font-family="sans-serif" font-size="14" lengthAdjust="spacing" textLength="155" x="1156" y="738.1826">start_date: DateTime</text><text fill="#000000" font-family="sans-serif" font-size="14" lengthAdjust="spacing" textLength="147" x="1156" y="754.4795">end_date: DateTime</text><text fill="#000000" font-family="sans-serif" font-size="14" lengthAdjust="spacing" textLength="133" x="1156" y="770.7764">phase: WavePhase</text><line style="stroke:#181818;stroke-width:0.5;" x1="1151" x2="1323" y1="778.0781" y2="778.0781"/></g><!--class WavePhase--><g id="elem_WavePhase"><rect codeLine="114" fill="#F1F1F1" height="113.1875" id="WavePhase" rx="2.5" ry="2.5" style="stroke:#181818;stroke-width:0.5;" width="113" x="1233.5" y="426.5"/><ellipse cx="1248.5" cy="442.5" fill="#EB937F" rx="11" ry="11" style="stroke:#181818;stroke-width:1.0;"/><path d="M1247.2969,443.375 L1248.75,443.375 L1248.75,443.4844 C1248.75,443.8906 1248.7813,444.0469 1248.8594,444.2031 C1249.0156,444.4531 1249.2969,444.6094 1249.5938,444.6094 C1249.8438,444.6094 1250.1094,444.4688 1250.2656,444.25 C1250.3906,444.0938 1250.4219,443.9375 1250.4219,443.4844 L1250.4219,441.5625 C1250.4219,441.4063 1250.4219,441.3594 1250.4063,441.2031 C1250.3438,440.7344 1250.0313,440.4219 1249.5781,440.4219 C1249.3281,440.4219 1249.0625,440.5625 1248.8906,440.7813 C1248.7813,440.9531 1248.75,441.1094 1248.75,441.5625 L1248.75,441.6875 L1247.2969,441.6875 L1247.2969,439.2813 L1251.2813,439.2813 L1251.2813,440.1406 C1251.2813,440.5469 1251.3125,440.7188 1251.3906,440.875 C1251.5625,441.125 1251.8438,441.2813 1252.125,441.2813 C1252.3906,441.2813 1252.6563,441.1406 1252.8281,440.9219 C1252.9375,440.75 1252.9688,440.6094 1252.9688,440.1406 L1252.9688,437.5938 L1245.3438,437.5938 C1244.9063,437.5938 1244.7813,437.6094 1244.625,437.7031 C1244.375,437.8594 1244.2188,438.1563 1244.2188,438.4375 C1244.2188,438.7188 1244.3594,438.9688 1244.5781,439.1406 C1244.7344,439.25 1244.9219,439.2813 1245.3438,439.2813 L1245.5938,439.2813 L1245.5938,445.7969 L1245.3438,445.7969 C1244.9375,445.7969 1244.7813,445.8125 1244.625,445.9219 C1244.375,446.0938 1244.2188,446.3594 1244.2188,446.6563 C1244.2188,446.9219 1244.3594,447.1719 1244.5781,447.3281 C1244.7188,447.4531 1244.9531,447.5 1245.3438,447.5 L1253.3438,447.5 L1253.3438,444.9219 C1253.3438,444.4844 1253.3125,444.3438 1253.2344,444.1875 C1253.0625,443.9375 1252.7813,443.7813 1252.5,443.7813 C1252.2344,443.7813 1251.9688,443.8906 1251.7969,444.1406 C1251.6875,444.2969 1251.6563,444.4375 1251.6563,444.9219 L1251.6563,445.7969 L1247.2969,445.7969 L1247.2969,443.375 Z " fill="#000000"/><text fill="#000000" font-family="sans-serif" font-size="14" lengthAdjust="spacing" textLength="81" x="1262.5" y="447.3467">WavePhase</text><line style="stroke:#181818;stroke-width:0.5;" x1="1234.5" x2="1345.5" y1="458.5" y2="458.5"/><text fill="#000000" font-family="sans-serif" font-size="14" lengthAdjust="spacing" textLength="39" x="1239.5" y="475.4951">OPEN</text><text fill="#000000" font-family="sans-serif" font-size="14" lengthAdjust="spacing" textLength="79" x="1239.5" y="491.792">DENOISING</text><text fill="#000000" font-family="sans-serif" font-size="14" lengthAdjust="spacing" textLength="95" x="1239.5" y="508.0889">ASSESEMENT</text><text fill="#000000" font-family="sans-serif" font-size="14" lengthAdjust="spacing" textLength="58" x="1239.5" y="524.3857">CLOSED</text><line style="stroke:#181818;stroke-width:0.5;" x1="1234.5" x2="1345.5" y1="531.6875" y2="531.6875"/></g><!--link Reviewers to UserAccounts--><g id="link_Reviewers_UserAccounts"><path codeLine="97" d="M716.3727,538.4306 C695.5277,570.2766 680.4839,593.2605 657.7869,627.9365 " fill="none" id="Reviewers-UserAccounts" style="stroke:#181818;stroke-width:1.0;"/><line style="stroke:#181818;stroke-width:1.0;" x1="715.2165" x2="721.9101" y1="532.8931" y2="537.2745"/><line style="stroke:#181818;stroke-width:1.0;" x1="713.5736" x2="720.2671" y1="535.4032" y2="539.7845"/><line style="stroke:#181818;stroke-width:1.0;" x1="716.3727" x2="720.754" y1="538.4306" y2="531.737"/><line style="stroke:#181818;stroke-width:1.0;" x1="655.5962" x2="649.572" y1="631.2833" y2="640.487"/><ellipse cx="655.5962" cy="631.2833" fill="none" rx="4" ry="4" style="stroke:#181818;stroke-width:1.0;"/><line style="stroke:#181818;stroke-width:1.0;" x1="655.1094" x2="648.4158" y1="639.3308" y2="634.9496"/></g><!--link Moderators to UserAccounts--><g id="link_Moderators_UserAccounts"><path codeLine="98" d="M156.8388,528.2127 C176.7308,542.1507 193.485,552.58 216,564 C314.768,614.097 421.39,650.0901 502.605,674.3601 " fill="none" id="Moderators-UserAccounts" style="stroke:#181818;stroke-width:1.0;"/><line style="stroke:#181818;stroke-width:1.0;" x1="151.2675" x2="155.8582" y1="529.1932" y2="522.6415"/><line style="stroke:#181818;stroke-width:1.0;" x1="153.7244" x2="158.3151" y1="530.9147" y2="524.363"/><line style="stroke:#181818;stroke-width:1.0;" x1="156.8388" x2="150.287" y1="528.2127" y2="523.622"/><line style="stroke:#181818;stroke-width:1.0;" x1="506.4375" x2="516.977" y1="675.5054" y2="678.655"/><ellipse cx="506.4375" cy="675.5054" fill="none" rx="4" ry="4" style="stroke:#181818;stroke-width:1.0;"/><line style="stroke:#181818;stroke-width:1.0;" x1="514.2898" x2="511.9992" y1="673.6772" y2="681.3422"/></g><!--link Applications to Wave--><g id="link_Applications_Wave"><path codeLine="99" d="M1066.1764,565.8351 C1097.4164,591.0971 1112.39,603.214 1143.62,628.474 " fill="none" id="Applications-Wave" style="stroke:#181818;stroke-width:1.0;"/><line style="stroke:#181818;stroke-width:1.0;" x1="1058.4006" x2="1048.4073" y1="559.5473" y2="559.1825"/><line style="stroke:#181818;stroke-width:1.0;" x1="1058.4006" x2="1055.9527" y1="559.5473" y2="549.8515"/><line style="stroke:#181818;stroke-width:1.0;" x1="1058.4006" x2="1052.18" y1="559.5473" y2="554.517"/><ellipse cx="1063.0661" cy="563.32" fill="none" rx="4" ry="4" style="stroke:#181818;stroke-width:1.0;"/><line style="stroke:#181818;stroke-width:1.0;" x1="1149.2455" x2="1144.2145" y1="627.8795" y2="634.0995"/><line style="stroke:#181818;stroke-width:1.0;" x1="1146.913" x2="1141.882" y1="625.9928" y2="632.2129"/><line style="stroke:#181818;stroke-width:1.0;" x1="1143.62" x2="1149.84" y1="628.474" y2="633.505"/></g><!--link Applications to UserAccounts--><g id="link_Applications_UserAccounts"><path codeLine="100" d="M862.9984,562.2975 C857.0614,566.4625 865.85,560.175 860,564 C808.268,597.826 754.8654,627.8428 706.1314,653.7408 " fill="none" id="Applications-UserAccounts" style="stroke:#181818;stroke-width:1.0;"/><line style="stroke:#181818;stroke-width:1.0;" x1="871.1849" x2="874.2882" y1="556.5544" y2="547.0481"/><line style="stroke:#181818;stroke-width:1.0;" x1="871.1849" x2="881.1798" y1="556.5544" y2="556.8719"/><line style="stroke:#181818;stroke-width:1.0;" x1="871.1849" x2="877.734" y1="556.5544" y2="551.96"/><ellipse cx="866.273" cy="560.0003" fill="none" rx="4" ry="4" style="stroke:#181818;stroke-width:1.0;"/><line style="stroke:#181818;stroke-width:1.0;" x1="704.4763" x2="700.7221" y1="659.1501" y2="652.0857"/><line style="stroke:#181818;stroke-width:1.0;" x1="707.1255" x2="703.3713" y1="657.7423" y2="650.6779"/><line style="stroke:#181818;stroke-width:1.0;" x1="706.1314" x2="699.067" y1="653.7408" y2="657.495"/></g><!--link Comments to Applications--><g id="link_Comments_Applications"><path codeLine="101" d="M826.8091,338.5944 C849.6771,362.3254 857.8998,370.8584 882.0288,395.8974 " fill="none" id="Comments-Applications" style="stroke:#181818;stroke-width:1.0;"/><line style="stroke:#181818;stroke-width:1.0;" x1="819.8701" x2="809.9985" y1="331.3936" y2="329.7964"/><line style="stroke:#181818;stroke-width:1.0;" x1="819.8701" x2="818.6395" y1="331.3936" y2="321.4696"/><line style="stroke:#181818;stroke-width:1.0;" x1="819.8701" x2="814.319" y1="331.3936" y2="325.633"/><ellipse cx="824.0335" cy="335.7141" fill="none" rx="4" ry="4" style="stroke:#181818;stroke-width:1.0;"/><line style="stroke:#181818;stroke-width:1.0;" x1="887.6847" x2="881.9241" y1="396.0021" y2="401.5533"/><line style="stroke:#181818;stroke-width:1.0;" x1="885.603" x2="879.8424" y1="393.8419" y2="399.3931"/><line style="stroke:#181818;stroke-width:1.0;" x1="882.0288" x2="887.58" y1="395.8974" y2="401.658"/></g><!--link Comments to UserAccounts--><g id="link_Comments_UserAccounts"><path codeLine="102" d="M679.6221,339.4584 C661.1691,361.9244 654.3,374.562 643,402 C611.041,479.599 605.2518,569.304 605.4738,632.206 " fill="none" id="Comments-UserAccounts" style="stroke:#181818;stroke-width:1.0;"/><line style="stroke:#181818;stroke-width:1.0;" x1="685.9693" x2="686.4105" y1="331.731" y2="321.7407"/><line style="stroke:#181818;stroke-width:1.0;" x1="685.9693" x2="695.6835" y1="331.731" y2="329.3573"/><line style="stroke:#181818;stroke-width:1.0;" x1="685.9693" x2="691.047" y1="331.731" y2="325.549"/><ellipse cx="682.161" cy="336.3675" fill="none" rx="4" ry="4" style="stroke:#181818;stroke-width:1.0;"/><line style="stroke:#181818;stroke-width:1.0;" x1="609.4879" x2="601.4879" y1="636.1919" y2="636.2201"/><line style="stroke:#181818;stroke-width:1.0;" x1="609.4773" x2="601.4773" y1="633.1919" y2="633.2202"/><line style="stroke:#181818;stroke-width:1.0;" x1="605.4738" x2="605.502" y1="632.206" y2="640.206"/></g><!--link Reviews to Comments--><g id="link_Reviews_Comments"><path codeLine="103" d="M858.1255,126.5453 C839.4555,150.2453 831.816,159.9448 812.508,184.4558 " fill="none" id="Reviews-Comments" style="stroke:#181818;stroke-width:1.0;"/><line style="stroke:#181818;stroke-width:1.0;" x1="857.4586" x2="863.7429" y1="120.9279" y2="125.8784"/><line style="stroke:#181818;stroke-width:1.0;" x1="855.6021" x2="861.8864" y1="123.2845" y2="128.235"/><line style="stroke:#181818;stroke-width:1.0;" x1="858.1255" x2="863.076" y1="126.5453" y2="120.261"/><line style="stroke:#181818;stroke-width:1.0;" x1="810.0328" x2="803.226" y1="187.598" y2="196.239"/><ellipse cx="810.0328" cy="187.598" fill="none" rx="4" ry="4" style="stroke:#181818;stroke-width:1.0;"/><line style="stroke:#181818;stroke-width:1.0;" x1="808.8434" x2="802.559" y1="195.572" y2="190.6216"/></g><!--link Reviews to Applications--><g id="link_Reviews_Applications"><path codeLine="104" d="M909.3149,138.1114 C911.5829,194.3844 916.269,265.73 929,342 C932.264,361.555 934.9836,374.6174 939.8916,394.0564 " fill="none" id="Reviews-Applications" style="stroke:#181818;stroke-width:1.0;"/><line style="stroke:#181818;stroke-width:1.0;" x1="908.9122" x2="902.5949" y1="128.1195" y2="120.3676"/><line style="stroke:#181818;stroke-width:1.0;" x1="908.9122" x2="914.5851" y1="128.1195" y2="119.8844"/><line style="stroke:#181818;stroke-width:1.0;" x1="908.9122" x2="908.59" y1="128.1195" y2="120.126"/><ellipse cx="909.1538" cy="134.1146" fill="none" rx="4" ry="4" style="stroke:#181818;stroke-width:1.0;"/><line style="stroke:#181818;stroke-width:1.0;" x1="944.7491" x2="936.9925" y1="396.9555" y2="398.9139"/><line style="stroke:#181818;stroke-width:1.0;" x1="944.0147" x2="936.2581" y1="394.0468" y2="396.0052"/><line style="stroke:#181818;stroke-width:1.0;" x1="939.8916" x2="941.85" y1="394.0564" y2="401.813"/></g><!--link Reviews to UserAccounts--><g id="link_Reviews_UserAccounts"><path codeLine="105" d="M1070.9459,113.181 C1106.5159,130.319 1124.04,146.524 1145,180 C1237.29,327.377 1196.5,444.682 1070,564 C996.586,633.248 947.627,594.878 851,624 C800.501,639.22 752.149,654.9869 706.685,670.2499 " fill="none" id="Reviews-UserAccounts" style="stroke:#181818;stroke-width:1.0;"/><line style="stroke:#181818;stroke-width:1.0;" x1="1061.9371" x2="1052.1257" y1="108.8404" y2="110.7733"/><line style="stroke:#181818;stroke-width:1.0;" x1="1061.9371" x2="1057.3343" y1="108.8404" y2="99.9627"/><line style="stroke:#181818;stroke-width:1.0;" x1="1061.9371" x2="1054.73" y1="108.8404" y2="105.368"/><ellipse cx="1067.3424" cy="111.4448" fill="none" rx="4" ry="4" style="stroke:#181818;stroke-width:1.0;"/><line style="stroke:#181818;stroke-width:1.0;" x1="704.1661" x2="701.62" y1="675.315" y2="667.7309"/><line style="stroke:#181818;stroke-width:1.0;" x1="707.0101" x2="704.464" y1="674.3602" y2="666.7762"/><line style="stroke:#181818;stroke-width:1.0;" x1="706.685" x2="699.101" y1="670.2499" y2="672.796"/></g><!--link ApplicationContacts to Applications--><g id="link_ApplicationContacts_Applications"><path codeLine="106" d="M1008.3128,349.6505 C1001.9628,369.0625 1000.1445,374.6149 993.7865,394.0409 " fill="none" id="ApplicationContacts-Applications" style="stroke:#181818;stroke-width:1.0;"/><line style="stroke:#181818;stroke-width:1.0;" x1="1005.7546" x2="1013.3581" y1="344.6051" y2="347.0924"/><line style="stroke:#181818;stroke-width:1.0;" x1="1004.8219" x2="1012.4254" y1="347.4565" y2="349.9437"/><line style="stroke:#181818;stroke-width:1.0;" x1="1008.3128" x2="1010.8" y1="349.6505" y2="342.047"/><line style="stroke:#181818;stroke-width:1.0;" x1="996.3438" x2="988.7407" y1="399.0867" y2="396.5982"/><line style="stroke:#181818;stroke-width:1.0;" x1="997.277" x2="989.6738" y1="396.2355" y2="393.747"/><line style="stroke:#181818;stroke-width:1.0;" x1="993.7865" x2="991.298" y1="394.0409" y2="401.644"/></g><!--link Applications to ApplicationCategories--><g id="link_Applications_ApplicationCategories"><path codeLine="107" d="M965,582.047 C965,616.202 965,628.527 965,656.424 " fill="none" id="Applications-ApplicationCategories" style="stroke:#181818;stroke-width:1.0;"/><line style="stroke:#181818;stroke-width:1.0;" x1="965" x2="959" y1="572.047" y2="564.047"/><line style="stroke:#181818;stroke-width:1.0;" x1="965" x2="971" y1="572.047" y2="564.047"/><line style="stroke:#181818;stroke-width:1.0;" x1="965" x2="965" y1="572.047" y2="564.047"/><ellipse cx="965" cy="578.047" fill="none" rx="4" ry="4" style="stroke:#181818;stroke-width:1.0;"/><line style="stroke:#181818;stroke-width:1.0;" x1="969" x2="961" y1="660.424" y2="660.424"/><line style="stroke:#181818;stroke-width:1.0;" x1="969" x2="961" y1="657.424" y2="657.424"/><line style="stroke:#181818;stroke-width:1.0;" x1="965" x2="965" y1="656.424" y2="664.424"/></g><!--link CommentValue to Comments--><g id="link_CommentValue_Comments"><path codeLine="108" d="M653.3921,134.3656 C672.1831,158.0656 678.0451,165.4591 697.4771,189.9701 " fill="none" id="CommentValue-Comments" style="stroke:#181818;stroke-width:1.0;"/><line style="stroke:#181818;stroke-width:1.0;" x1="647.1793" x2="637.5075" y1="126.5297" y2="123.9887"/><line style="stroke:#181818;stroke-width:1.0;" x1="647.1793" x2="646.9105" y1="126.5297" y2="116.5333"/><line style="stroke:#181818;stroke-width:1.0;" x1="647.1793" x2="642.209" y1="126.5297" y2="120.261"/><ellipse cx="650.9069" cy="131.2312" fill="none" rx="4" ry="4" style="stroke:#181818;stroke-width:1.0;"/><line style="stroke:#181818;stroke-width:1.0;" x1="703.0965" x2="696.8276" y1="190.6196" y2="195.5895"/><line style="stroke:#181818;stroke-width:1.0;" x1="701.2328" x2="694.9638" y1="188.2687" y2="193.2386"/><line style="stroke:#181818;stroke-width:1.0;" x1="697.4771" x2="702.447" y1="189.9701" y2="196.239"/></g><!--link CommentValue to UserAccounts--><g id="link_CommentValue_UserAccounts"><path codeLine="109" d="M454.1208,79.0012 C384.7068,92.3052 321.701,117.767 278,180 C236.623,238.924 263.275,271.522 278,342 C300.021,447.398 303.933,483.11 375,564 C413.623,607.962 462.3361,638.6132 509.6871,662.2152 " fill="none" id="CommentValue-UserAccounts" style="stroke:#181818;stroke-width:1.0;"/><line style="stroke:#181818;stroke-width:1.0;" x1="463.942" x2="470.6696" y1="77.1189" y2="69.7203"/><line style="stroke:#181818;stroke-width:1.0;" x1="463.942" x2="472.9284" y1="77.1189" y2="81.5057"/><line style="stroke:#181818;stroke-width:1.0;" x1="463.942" x2="471.799" y1="77.1189" y2="75.613"/><ellipse cx="458.0493" cy="78.2483" fill="none" rx="4" ry="4" style="stroke:#181818;stroke-width:1.0;"/><line style="stroke:#181818;stroke-width:1.0;" x1="515.0515" x2="511.4827" y1="660.4197" y2="667.5795"/><line style="stroke:#181818;stroke-width:1.0;" x1="512.3665" x2="508.7977" y1="659.0814" y2="666.2412"/><line style="stroke:#181818;stroke-width:1.0;" x1="509.6871" x2="516.847" y1="662.2152" y2="665.784"/></g><!--link ApplicationValue to Applications--><g id="link_ApplicationValue_Applications"><path codeLine="110" d="M575.4665,317.4309 C604.7835,327.9439 618.87,332.619 648,342 C741.209,372.018 772.406,358.226 860,402 C865.945,404.971 865.051,404.146 870.92,407.706 " fill="none" id="ApplicationValue-Applications" style="stroke:#181818;stroke-width:1.0;"/><line style="stroke:#181818;stroke-width:1.0;" x1="566.0535" x2="556.4977" y1="314.0554" y2="317.0028"/><line style="stroke:#181818;stroke-width:1.0;" x1="566.0535" x2="560.5483" y1="314.0554" y2="305.7072"/><line style="stroke:#181818;stroke-width:1.0;" x1="566.0535" x2="558.523" y1="314.0554" y2="311.355"/><ellipse cx="571.7013" cy="316.0807" fill="none" rx="4" ry="4" style="stroke:#181818;stroke-width:1.0;"/><line style="stroke:#181818;stroke-width:1.0;" x1="876.4145" x2="872.2655" y1="406.3605" y2="413.2005"/><line style="stroke:#181818;stroke-width:1.0;" x1="873.8495" x2="869.7005" y1="404.8046" y2="411.6446"/><line style="stroke:#181818;stroke-width:1.0;" x1="870.92" x2="877.76" y1="407.706" y2="411.855"/></g><!--link ApplicationValue to UserAccounts--><g id="link_ApplicationValue_UserAccounts"><path codeLine="111" d="M401.1185,334.8292 C381.3335,398.2892 365.224,486.128 406,564 C429.603,609.077 468.0312,638.6965 509.8472,661.5805 " fill="none" id="ApplicationValue-UserAccounts" style="stroke:#181818;stroke-width:1.0;"/><line style="stroke:#181818;stroke-width:1.0;" x1="404.0949" x2="400.7479" y1="325.2824" y2="315.8592"/><line style="stroke:#181818;stroke-width:1.0;" x1="404.0949" x2="412.2041" y1="325.2824" y2="319.4308"/><line style="stroke:#181818;stroke-width:1.0;" x1="404.0949" x2="406.476" y1="325.2824" y2="317.645"/><ellipse cx="402.309" cy="331.0105" fill="none" rx="4" ry="4" style="stroke:#181818;stroke-width:1.0;"/><line style="stroke:#181818;stroke-width:1.0;" x1="515.2764" x2="511.4358" y1="659.9918" y2="667.0096"/><line style="stroke:#181818;stroke-width:1.0;" x1="512.6447" x2="508.8041" y1="658.5516" y2="665.5694"/><line style="stroke:#181818;stroke-width:1.0;" x1="509.8472" x2="516.865" y1="661.5805" y2="665.421"/></g><!--link WavePhase to Wave--><g id="link_WavePhase_Wave"><path codeLine="121" d="M1276.63,539.515 C1270.46,565.101 1264.4345,590.1147 1257.6845,618.1487 " fill="none" id="WavePhase-to-Wave" style="stroke:#181818;stroke-width:1.0;"/><polygon fill="#181818" points="1256.28,623.982,1262.2757,616.1684,1257.4504,619.1209,1254.4979,614.2957,1256.28,623.982" style="stroke:#181818;stroke-width:1.0;"/></g><!--reverse link CommentValue to ContentValue--><g id="link_CommentValue_ContentValue"><path codeLine="123" d="M601.3583,126.2418 C602.8953,183.3788 600.296,268.082 576,342 C563.937,378.7 540.403,415.626 520.85,442.333 " fill="none" id="CommentValue-backto-ContentValue" style="stroke:#181818;stroke-width:1.0;"/><polygon fill="#181818" points="601.197,120.244,597.4405,129.3483,601.3315,125.2422,605.4376,129.1332,601.197,120.244" style="stroke:#181818;stroke-width:1.0;"/></g><!--reverse link ApplicationValue to ContentValue--><g id="link_ApplicationValue_ContentValue"><path codeLine="124" d="M444.2725,323.2901 C455.2495,362.2411 468.036,407.612 477.857,442.462 " fill="none" id="ApplicationValue-backto-ContentValue" style="stroke:#181818;stroke-width:1.0;"/><polygon fill="#181818" points="442.645,317.515,441.2362,327.2626,444.0013,322.3275,448.9363,325.0926,442.645,317.515" style="stroke:#181818;stroke-width:1.0;"/></g><!--SRC=[jLLHRvim47xdL_XjdLJ_WIYAX19MeJO96bdt6BbmQwq1HiQaYvR-zzb0m3Qcl2nvYNrdV_TzTxu32a756VseWFj9mkf2LEYlX-IFfWiKRj1o-Ge5S28WNQqQHy91xOv4BD16hWuqXyPHbwdR0U8DEDIvdwOSgcg13l17j46guql6ajyWWxqmbW4fl0_FWvRLTpXHU0S-JoaZCfQ6CHrrGD-oL86mUNWd4jAW_BBCQ484PSKDqbUG7BISOTpylPCJ7Fietnux-5fMqc6MvE2LyRFbaXA-b9oUf1V9w0InNuWCOXpwrgmG916tbmaveTbOjiREqkAknxeLJc6MiHRVYVHCiXewa6aMdzJWf00MI6LGeZTmkhA8qvpmyoESxqpu-olWLutOckKvtAHRPnCz8N74JKzOqffkaQm1savKdHltEohHFWuFuNFGREB8tuucJZLB-lFay6vksG_K8guTkxSGzKh_b8t-NwkCNErM2SB5KHssXtUHkipb6wcaJP6Br58Q5UTXP5yk6BEByMNnj97hSXjZz8DXVBaq0PmEusRV3PrJlp1o6ZUl5U_uNC_sTXUWvPlIq8zAXMrZk2GvnvPdT5DtigVfSaxnCGvDaPb6wZgghtZt9lTHi6iMcs2t3-Dmzz3i_3WEuc0Rx0xDTlsqZuEDUY73VOnNRNbD5KkCpROViRDF_0C0]--></g></svg>