<?xml version="1.0" encoding="us-ascii" standalone="no"?><svg xmlns="http://www.w3.org/2000/svg" xmlns:xlink="http://www.w3.org/1999/xlink" contentStyleType="text/css" height="793px" preserveAspectRatio="none" style="width:1837px;height:793px;background:#FFFFFF;" version="1.1" viewBox="0 0 1837 793" width="1837px" zoomAndPan="magnify"><defs/><g><!--class UserAccounts--><g id="elem_UserAccounts"><rect codeLine="1" fill="#F1F1F1" height="113.1875" id="UserAccounts" rx="2.5" ry="2.5" style="stroke:#181818;stroke-width:0.5;" width="182" x="837.7705" y="648.5"/><ellipse cx="876.6205" cy="664.5" fill="#ADD1B2" rx="11" ry="11" style="stroke:#181818;stroke-width:1.0;"/><path d="M875.4174,665.375 L876.8705,665.375 L876.8705,665.4844 C876.8705,665.8906 876.9018,666.0469 876.9799,666.2031 C877.1361,666.4531 877.4174,666.6094 877.7143,666.6094 C877.9643,666.6094 878.2299,666.4688 878.3861,666.25 C878.5111,666.0938 878.5424,665.9375 878.5424,665.4844 L878.5424,663.5625 C878.5424,663.4063 878.5424,663.3594 878.5268,663.2031 C878.4643,662.7344 878.1518,662.4219 877.6986,662.4219 C877.4486,662.4219 877.183,662.5625 877.0111,662.7813 C876.9018,662.9531 876.8705,663.1094 876.8705,663.5625 L876.8705,663.6875 L875.4174,663.6875 L875.4174,661.2813 L879.4018,661.2813 L879.4018,662.1406 C879.4018,662.5469 879.433,662.7188 879.5111,662.875 C879.683,663.125 879.9643,663.2813 880.2455,663.2813 C880.5111,663.2813 880.7768,663.1406 880.9486,662.9219 C881.058,662.75 881.0893,662.6094 881.0893,662.1406 L881.0893,659.5938 L873.4643,659.5938 C873.0268,659.5938 872.9018,659.6094 872.7455,659.7031 C872.4955,659.8594 872.3393,660.1563 872.3393,660.4375 C872.3393,660.7188 872.4799,660.9688 872.6986,661.1406 C872.8549,661.25 873.0424,661.2813 873.4643,661.2813 L873.7143,661.2813 L873.7143,667.7969 L873.4643,667.7969 C873.058,667.7969 872.9018,667.8125 872.7455,667.9219 C872.4955,668.0938 872.3393,668.3594 872.3393,668.6563 C872.3393,668.9219 872.4799,669.1719 872.6986,669.3281 C872.8393,669.4531 873.0736,669.5 873.4643,669.5 L881.4643,669.5 L881.4643,666.9219 C881.4643,666.4844 881.433,666.3438 881.3549,666.1875 C881.183,665.9375 880.9018,665.7813 880.6205,665.7813 C880.3549,665.7813 880.0893,665.8906 879.9174,666.1406 C879.808,666.2969 879.7768,666.4375 879.7768,666.9219 L879.7768,667.7969 L875.4174,667.7969 L875.4174,665.375 Z " fill="#000000"/><text fill="#000000" font-family="sans-serif" font-size="14" lengthAdjust="spacing" textLength="97" x="895.9205" y="669.3467">UserAccounts</text><line style="stroke:#181818;stroke-width:0.5;" x1="838.7705" x2="1018.7705" y1="680.5" y2="680.5"/><text fill="#000000" font-family="sans-serif" font-size="14" lengthAdjust="spacing" textLength="132" x="843.7705" y="697.4951">id: ID &#171;generated&#187;</text><text fill="#000000" font-family="sans-serif" font-size="14" lengthAdjust="spacing" textLength="158" x="843.7705" y="713.792">created_at: DateTime</text><text fill="#000000" font-family="sans-serif" font-size="14" lengthAdjust="spacing" textLength="162" x="843.7705" y="730.0889">updated_at: DateTime</text><text fill="#000000" font-family="sans-serif" font-size="14" lengthAdjust="spacing" textLength="170" x="843.7705" y="746.3857">ethereumAddress: Text</text><line style="stroke:#181818;stroke-width:0.5;" x1="838.7705" x2="1018.7705" y1="753.6875" y2="753.6875"/></g><!--class Reviewers--><g id="elem_Reviewers"><rect codeLine="9" fill="#F1F1F1" height="96.8906" id="Reviewers" rx="2.5" ry="2.5" style="stroke:#181818;stroke-width:0.5;" width="220" x="151.7705" y="434.5"/><ellipse cx="221.0205" cy="450.5" fill="#ADD1B2" rx="11" ry="11" style="stroke:#181818;stroke-width:1.0;"/><path d="M219.8174,451.375 L221.2705,451.375 L221.2705,451.4844 C221.2705,451.8906 221.3018,452.0469 221.3799,452.2031 C221.5361,452.4531 221.8174,452.6094 222.1143,452.6094 C222.3643,452.6094 222.6299,452.4688 222.7861,452.25 C222.9111,452.0938 222.9424,451.9375 222.9424,451.4844 L222.9424,449.5625 C222.9424,449.4063 222.9424,449.3594 222.9268,449.2031 C222.8643,448.7344 222.5518,448.4219 222.0986,448.4219 C221.8486,448.4219 221.583,448.5625 221.4111,448.7813 C221.3018,448.9531 221.2705,449.1094 221.2705,449.5625 L221.2705,449.6875 L219.8174,449.6875 L219.8174,447.2813 L223.8018,447.2813 L223.8018,448.1406 C223.8018,448.5469 223.833,448.7188 223.9111,448.875 C224.083,449.125 224.3643,449.2813 224.6455,449.2813 C224.9111,449.2813 225.1768,449.1406 225.3486,448.9219 C225.458,448.75 225.4893,448.6094 225.4893,448.1406 L225.4893,445.5938 L217.8643,445.5938 C217.4268,445.5938 217.3018,445.6094 217.1455,445.7031 C216.8955,445.8594 216.7393,446.1563 216.7393,446.4375 C216.7393,446.7188 216.8799,446.9688 217.0986,447.1406 C217.2549,447.25 217.4424,447.2813 217.8643,447.2813 L218.1143,447.2813 L218.1143,453.7969 L217.8643,453.7969 C217.458,453.7969 217.3018,453.8125 217.1455,453.9219 C216.8955,454.0938 216.7393,454.3594 216.7393,454.6563 C216.7393,454.9219 216.8799,455.1719 217.0986,455.3281 C217.2393,455.4531 217.4736,455.5 217.8643,455.5 L225.8643,455.5 L225.8643,452.9219 C225.8643,452.4844 225.833,452.3438 225.7549,452.1875 C225.583,451.9375 225.3018,451.7813 225.0205,451.7813 C224.7549,451.7813 224.4893,451.8906 224.3174,452.1406 C224.208,452.2969 224.1768,452.4375 224.1768,452.9219 L224.1768,453.7969 L219.8174,453.7969 L219.8174,451.375 Z " fill="#000000"/><text fill="#000000" font-family="sans-serif" font-size="14" lengthAdjust="spacing" textLength="73" x="241.5205" y="455.3467">Reviewers</text><line style="stroke:#181818;stroke-width:0.5;" x1="152.7705" x2="370.7705" y1="466.5" y2="466.5"/><text fill="#000000" font-family="sans-serif" font-size="14" lengthAdjust="spacing" textLength="132" x="157.7705" y="483.4951">id: ID &#171;generated&#187;</text><text fill="#000000" font-family="sans-serif" font-size="14" lengthAdjust="spacing" textLength="123" x="157.7705" y="499.792">claimed: boolean</text><line style="stroke:#181818;stroke-width:1.0;" x1="152.7705" x2="370.7705" y1="507.0938" y2="507.0938"/><text fill="#000000" font-family="sans-serif" font-size="14" lengthAdjust="spacing" textLength="208" x="157.7705" y="524.0889">ethereumAddress: Text &#171;FK&#187;</text></g><!--class Moderators--><g id="elem_Moderators"><rect codeLine="16" fill="#F1F1F1" height="80.5938" id="Moderators" rx="2.5" ry="2.5" style="stroke:#181818;stroke-width:0.5;" width="220" x="406.7705" y="442.5"/><ellipse cx="471.5205" cy="458.5" fill="#ADD1B2" rx="11" ry="11" style="stroke:#181818;stroke-width:1.0;"/><path d="M470.3174,459.375 L471.7705,459.375 L471.7705,459.4844 C471.7705,459.8906 471.8017,460.0469 471.8799,460.2031 C472.0361,460.4531 472.3174,460.6094 472.6142,460.6094 C472.8642,460.6094 473.1299,460.4688 473.2861,460.25 C473.4111,460.0938 473.4424,459.9375 473.4424,459.4844 L473.4424,457.5625 C473.4424,457.4063 473.4424,457.3594 473.4267,457.2031 C473.3642,456.7344 473.0517,456.4219 472.5986,456.4219 C472.3486,456.4219 472.083,456.5625 471.9111,456.7813 C471.8017,456.9531 471.7705,457.1094 471.7705,457.5625 L471.7705,457.6875 L470.3174,457.6875 L470.3174,455.2813 L474.3017,455.2813 L474.3017,456.1406 C474.3017,456.5469 474.333,456.7188 474.4111,456.875 C474.583,457.125 474.8642,457.2813 475.1455,457.2813 C475.4111,457.2813 475.6767,457.1406 475.8486,456.9219 C475.958,456.75 475.9892,456.6094 475.9892,456.1406 L475.9892,453.5938 L468.3642,453.5938 C467.9267,453.5938 467.8017,453.6094 467.6455,453.7031 C467.3955,453.8594 467.2392,454.1563 467.2392,454.4375 C467.2392,454.7188 467.3799,454.9688 467.5986,455.1406 C467.7549,455.25 467.9424,455.2813 468.3642,455.2813 L468.6142,455.2813 L468.6142,461.7969 L468.3642,461.7969 C467.958,461.7969 467.8017,461.8125 467.6455,461.9219 C467.3955,462.0938 467.2392,462.3594 467.2392,462.6563 C467.2392,462.9219 467.3799,463.1719 467.5986,463.3281 C467.7392,463.4531 467.9736,463.5 468.3642,463.5 L476.3642,463.5 L476.3642,460.9219 C476.3642,460.4844 476.333,460.3438 476.2549,460.1875 C476.083,459.9375 475.8017,459.7813 475.5205,459.7813 C475.2549,459.7813 474.9892,459.8906 474.8174,460.1406 C474.708,460.2969 474.6767,460.4375 474.6767,460.9219 L474.6767,461.7969 L470.3174,461.7969 L470.3174,459.375 Z " fill="#000000"/><text fill="#000000" font-family="sans-serif" font-size="14" lengthAdjust="spacing" textLength="82" x="492.0205" y="463.3467">Moderators</text><line style="stroke:#181818;stroke-width:0.5;" x1="407.7705" x2="625.7705" y1="474.5" y2="474.5"/><text fill="#000000" font-family="sans-serif" font-size="14" lengthAdjust="spacing" textLength="132" x="412.7705" y="491.4951">id: ID &#171;generated&#187;</text><line style="stroke:#181818;stroke-width:1.0;" x1="407.7705" x2="625.7705" y1="498.7969" y2="498.7969"/><text fill="#000000" font-family="sans-serif" font-size="14" lengthAdjust="spacing" textLength="208" x="412.7705" y="515.792">ethereumAddress: Text &#171;FK&#187;</text></g><!--class BlockedUsers--><g id="elem_BlockedUsers"><rect codeLine="22" fill="#F1F1F1" height="80.5938" id="BlockedUsers" rx="2.5" ry="2.5" style="stroke:#181818;stroke-width:0.5;" width="214" x="661.7705" y="442.5"/><ellipse cx="716.5205" cy="458.5" fill="#ADD1B2" rx="11" ry="11" style="stroke:#181818;stroke-width:1.0;"/><path d="M715.3174,459.375 L716.7705,459.375 L716.7705,459.4844 C716.7705,459.8906 716.8018,460.0469 716.8799,460.2031 C717.0361,460.4531 717.3174,460.6094 717.6143,460.6094 C717.8643,460.6094 718.1299,460.4688 718.2861,460.25 C718.4111,460.0938 718.4424,459.9375 718.4424,459.4844 L718.4424,457.5625 C718.4424,457.4063 718.4424,457.3594 718.4268,457.2031 C718.3643,456.7344 718.0518,456.4219 717.5986,456.4219 C717.3486,456.4219 717.083,456.5625 716.9111,456.7813 C716.8018,456.9531 716.7705,457.1094 716.7705,457.5625 L716.7705,457.6875 L715.3174,457.6875 L715.3174,455.2813 L719.3018,455.2813 L719.3018,456.1406 C719.3018,456.5469 719.333,456.7188 719.4111,456.875 C719.583,457.125 719.8643,457.2813 720.1455,457.2813 C720.4111,457.2813 720.6768,457.1406 720.8486,456.9219 C720.958,456.75 720.9893,456.6094 720.9893,456.1406 L720.9893,453.5938 L713.3643,453.5938 C712.9268,453.5938 712.8018,453.6094 712.6455,453.7031 C712.3955,453.8594 712.2393,454.1563 712.2393,454.4375 C712.2393,454.7188 712.3799,454.9688 712.5986,455.1406 C712.7549,455.25 712.9424,455.2813 713.3643,455.2813 L713.6143,455.2813 L713.6143,461.7969 L713.3643,461.7969 C712.958,461.7969 712.8018,461.8125 712.6455,461.9219 C712.3955,462.0938 712.2393,462.3594 712.2393,462.6563 C712.2393,462.9219 712.3799,463.1719 712.5986,463.3281 C712.7393,463.4531 712.9736,463.5 713.3643,463.5 L721.3643,463.5 L721.3643,460.9219 C721.3643,460.4844 721.333,460.3438 721.2549,460.1875 C721.083,459.9375 720.8018,459.7813 720.5205,459.7813 C720.2549,459.7813 719.9893,459.8906 719.8174,460.1406 C719.708,460.2969 719.6768,460.4375 719.6768,460.9219 L719.6768,461.7969 L715.3174,461.7969 L715.3174,459.375 Z " fill="#000000"/><text fill="#000000" font-family="sans-serif" font-size="14" lengthAdjust="spacing" textLength="96" x="737.0205" y="463.3467">BlockedUsers</text><line style="stroke:#181818;stroke-width:0.5;" x1="662.7705" x2="874.7705" y1="474.5" y2="474.5"/><text fill="#000000" font-family="sans-serif" font-size="14" lengthAdjust="spacing" textLength="177" x="667.7705" y="491.4951">blocked_user_id: ID &#171;FK&#187;</text><text fill="#000000" font-family="sans-serif" font-size="14" lengthAdjust="spacing" textLength="202" x="667.7705" y="507.792">blocked_by_user_id: ID &#171;FK&#187;</text><line style="stroke:#181818;stroke-width:0.5;" x1="662.7705" x2="874.7705" y1="515.0938" y2="515.0938"/></g><!--class Applications--><g id="elem_Applications"><rect codeLine="27" fill="#F1F1F1" height="162.0781" id="Applications" rx="2.5" ry="2.5" style="stroke:#181818;stroke-width:0.5;" width="174" x="1439.7725" y="402"/><ellipse cx="1478.1725" cy="418" fill="#ADD1B2" rx="11" ry="11" style="stroke:#181818;stroke-width:1.0;"/><path d="M1476.9694,418.875 L1478.4225,418.875 L1478.4225,418.9844 C1478.4225,419.3906 1478.4538,419.5469 1478.5319,419.7031 C1478.6881,419.9531 1478.9694,420.1094 1479.2663,420.1094 C1479.5163,420.1094 1479.7819,419.9688 1479.9381,419.75 C1480.0631,419.5938 1480.0944,419.4375 1480.0944,418.9844 L1480.0944,417.0625 C1480.0944,416.9063 1480.0944,416.8594 1480.0788,416.7031 C1480.0163,416.2344 1479.7038,415.9219 1479.2506,415.9219 C1479.0006,415.9219 1478.735,416.0625 1478.5631,416.2813 C1478.4538,416.4531 1478.4225,416.6094 1478.4225,417.0625 L1478.4225,417.1875 L1476.9694,417.1875 L1476.9694,414.7813 L1480.9538,414.7813 L1480.9538,415.6406 C1480.9538,416.0469 1480.985,416.2188 1481.0631,416.375 C1481.235,416.625 1481.5163,416.7813 1481.7975,416.7813 C1482.0631,416.7813 1482.3288,416.6406 1482.5006,416.4219 C1482.61,416.25 1482.6413,416.1094 1482.6413,415.6406 L1482.6413,413.0938 L1475.0163,413.0938 C1474.5788,413.0938 1474.4538,413.1094 1474.2975,413.2031 C1474.0475,413.3594 1473.8913,413.6563 1473.8913,413.9375 C1473.8913,414.2188 1474.0319,414.4688 1474.2506,414.6406 C1474.4069,414.75 1474.5944,414.7813 1475.0163,414.7813 L1475.2663,414.7813 L1475.2663,421.2969 L1475.0163,421.2969 C1474.61,421.2969 1474.4538,421.3125 1474.2975,421.4219 C1474.0475,421.5938 1473.8913,421.8594 1473.8913,422.1563 C1473.8913,422.4219 1474.0319,422.6719 1474.2506,422.8281 C1474.3913,422.9531 1474.6256,423 1475.0163,423 L1483.0163,423 L1483.0163,420.4219 C1483.0163,419.9844 1482.985,419.8438 1482.9069,419.6875 C1482.735,419.4375 1482.4538,419.2813 1482.1725,419.2813 C1481.9069,419.2813 1481.6413,419.3906 1481.4694,419.6406 C1481.36,419.7969 1481.3288,419.9375 1481.3288,420.4219 L1481.3288,421.2969 L1476.9694,421.2969 L1476.9694,418.875 Z " fill="#000000"/><text fill="#000000" font-family="sans-serif" font-size="14" lengthAdjust="spacing" textLength="90" x="1497.3725" y="422.8467">Applications</text><line style="stroke:#181818;stroke-width:0.5;" x1="1440.7725" x2="1612.7725" y1="434" y2="434"/><text fill="#000000" font-family="sans-serif" font-size="14" lengthAdjust="spacing" textLength="132" x="1445.7725" y="450.9951">id: ID &#171;generated&#187;</text><text fill="#000000" font-family="sans-serif" font-size="14" lengthAdjust="spacing" textLength="158" x="1445.7725" y="467.292">created_at: DateTime</text><text fill="#000000" font-family="sans-serif" font-size="14" lengthAdjust="spacing" textLength="162" x="1445.7725" y="483.5889">updated_at: DateTime</text><text fill="#000000" font-family="sans-serif" font-size="14" lengthAdjust="spacing" textLength="82" x="1445.7725" y="499.8857">name: Text</text><line style="stroke:#181818;stroke-width:1.0;" x1="1440.7725" x2="1612.7725" y1="507.1875" y2="507.1875"/><text fill="#000000" font-family="sans-serif" font-size="14" lengthAdjust="spacing" textLength="118" x="1445.7725" y="524.1826">wave_id: ID &#171;FK&#187;</text><text fill="#000000" font-family="sans-serif" font-size="14" lengthAdjust="spacing" textLength="112" x="1445.7725" y="540.4795">user_id: ID &#171;FK&#187;</text><text fill="#000000" font-family="sans-serif" font-size="14" lengthAdjust="spacing" textLength="146" x="1445.7725" y="556.7764">category_id: ID &#171;FK&#187;</text></g><!--class ApplicationContacts--><g id="elem_ApplicationContacts"><rect codeLine="39" fill="#F1F1F1" height="162.0781" id="ApplicationContacts" rx="2.5" ry="2.5" style="stroke:#181818;stroke-width:0.5;" width="180" x="1650.7725" y="180"/><ellipse cx="1665.7725" cy="196" fill="#ADD1B2" rx="11" ry="11" style="stroke:#181818;stroke-width:1.0;"/><path d="M1664.5694,196.875 L1666.0225,196.875 L1666.0225,196.9844 C1666.0225,197.3906 1666.0538,197.5469 1666.1319,197.7031 C1666.2881,197.9531 1666.5694,198.1094 1666.8663,198.1094 C1667.1163,198.1094 1667.3819,197.9688 1667.5381,197.75 C1667.6631,197.5938 1667.6944,197.4375 1667.6944,196.9844 L1667.6944,195.0625 C1667.6944,194.9063 1667.6944,194.8594 1667.6788,194.7031 C1667.6163,194.2344 1667.3038,193.9219 1666.8506,193.9219 C1666.6006,193.9219 1666.335,194.0625 1666.1631,194.2813 C1666.0538,194.4531 1666.0225,194.6094 1666.0225,195.0625 L1666.0225,195.1875 L1664.5694,195.1875 L1664.5694,192.7813 L1668.5538,192.7813 L1668.5538,193.6406 C1668.5538,194.0469 1668.585,194.2188 1668.6631,194.375 C1668.835,194.625 1669.1163,194.7813 1669.3975,194.7813 C1669.6631,194.7813 1669.9288,194.6406 1670.1006,194.4219 C1670.21,194.25 1670.2413,194.1094 1670.2413,193.6406 L1670.2413,191.0938 L1662.6163,191.0938 C1662.1788,191.0938 1662.0538,191.1094 1661.8975,191.2031 C1661.6475,191.3594 1661.4913,191.6563 1661.4913,191.9375 C1661.4913,192.2188 1661.6319,192.4688 1661.8506,192.6406 C1662.0069,192.75 1662.1944,192.7813 1662.6163,192.7813 L1662.8663,192.7813 L1662.8663,199.2969 L1662.6163,199.2969 C1662.21,199.2969 1662.0538,199.3125 1661.8975,199.4219 C1661.6475,199.5938 1661.4913,199.8594 1661.4913,200.1563 C1661.4913,200.4219 1661.6319,200.6719 1661.8506,200.8281 C1661.9913,200.9531 1662.2256,201 1662.6163,201 L1670.6163,201 L1670.6163,198.4219 C1670.6163,197.9844 1670.585,197.8438 1670.5069,197.6875 C1670.335,197.4375 1670.0538,197.2813 1669.7725,197.2813 C1669.5069,197.2813 1669.2413,197.3906 1669.0694,197.6406 C1668.96,197.7969 1668.9288,197.9375 1668.9288,198.4219 L1668.9288,199.2969 L1664.5694,199.2969 L1664.5694,196.875 Z " fill="#000000"/><text fill="#000000" font-family="sans-serif" font-size="14" lengthAdjust="spacing" textLength="148" x="1679.7725" y="200.8467">ApplicationContacts</text><line style="stroke:#181818;stroke-width:0.5;" x1="1651.7725" x2="1829.7725" y1="212" y2="212"/><text fill="#000000" font-family="sans-serif" font-size="14" lengthAdjust="spacing" textLength="132" x="1656.7725" y="228.9951">id: ID &#171;generated&#187;</text><text fill="#000000" font-family="sans-serif" font-size="14" lengthAdjust="spacing" textLength="158" x="1656.7725" y="245.292">created_at: DateTime</text><text fill="#000000" font-family="sans-serif" font-size="14" lengthAdjust="spacing" textLength="162" x="1656.7725" y="261.5889">updated_at: DateTime</text><text fill="#000000" font-family="sans-serif" font-size="14" lengthAdjust="spacing" textLength="82" x="1656.7725" y="277.8857">name: Text</text><text fill="#000000" font-family="sans-serif" font-size="14" lengthAdjust="spacing" textLength="81" x="1656.7725" y="294.1826">email: Text</text><line style="stroke:#181818;stroke-width:1.0;" x1="1651.7725" x2="1829.7725" y1="301.4844" y2="301.4844"/><text fill="#000000" font-family="sans-serif" font-size="14" lengthAdjust="spacing" textLength="163" x="1656.7725" y="318.4795">application_id: ID &#171;FK&#187;</text><text fill="#000000" font-family="sans-serif" font-size="14" lengthAdjust="spacing" textLength="4" x="1656.7725" y="334.7764">&#160;</text></g><!--class ApplicationCategories--><g id="elem_ApplicationCategories"><rect codeLine="50" fill="#F1F1F1" height="80.5938" id="ApplicationCategories" rx="2.5" ry="2.5" style="stroke:#181818;stroke-width:0.5;" width="193" x="1410.2725" y="664.5"/><ellipse cx="1425.2725" cy="680.5" fill="#ADD1B2" rx="11" ry="11" style="stroke:#181818;stroke-width:1.0;"/><path d="M1424.0694,681.375 L1425.5225,681.375 L1425.5225,681.4844 C1425.5225,681.8906 1425.5538,682.0469 1425.6319,682.2031 C1425.7881,682.4531 1426.0694,682.6094 1426.3663,682.6094 C1426.6163,682.6094 1426.8819,682.4688 1427.0381,682.25 C1427.1631,682.0938 1427.1944,681.9375 1427.1944,681.4844 L1427.1944,679.5625 C1427.1944,679.4063 1427.1944,679.3594 1427.1788,679.2031 C1427.1163,678.7344 1426.8038,678.4219 1426.3506,678.4219 C1426.1006,678.4219 1425.835,678.5625 1425.6631,678.7813 C1425.5538,678.9531 1425.5225,679.1094 1425.5225,679.5625 L1425.5225,679.6875 L1424.0694,679.6875 L1424.0694,677.2813 L1428.0538,677.2813 L1428.0538,678.1406 C1428.0538,678.5469 1428.085,678.7188 1428.1631,678.875 C1428.335,679.125 1428.6163,679.2813 1428.8975,679.2813 C1429.1631,679.2813 1429.4288,679.1406 1429.6006,678.9219 C1429.71,678.75 1429.7413,678.6094 1429.7413,678.1406 L1429.7413,675.5938 L1422.1163,675.5938 C1421.6788,675.5938 1421.5538,675.6094 1421.3975,675.7031 C1421.1475,675.8594 1420.9913,676.1563 1420.9913,676.4375 C1420.9913,676.7188 1421.1319,676.9688 1421.3506,677.1406 C1421.5069,677.25 1421.6944,677.2813 1422.1163,677.2813 L1422.3663,677.2813 L1422.3663,683.7969 L1422.1163,683.7969 C1421.71,683.7969 1421.5538,683.8125 1421.3975,683.9219 C1421.1475,684.0938 1420.9913,684.3594 1420.9913,684.6563 C1420.9913,684.9219 1421.1319,685.1719 1421.3506,685.3281 C1421.4913,685.4531 1421.7256,685.5 1422.1163,685.5 L1430.1163,685.5 L1430.1163,682.9219 C1430.1163,682.4844 1430.085,682.3438 1430.0069,682.1875 C1429.835,681.9375 1429.5538,681.7813 1429.2725,681.7813 C1429.0069,681.7813 1428.7413,681.8906 1428.5694,682.1406 C1428.46,682.2969 1428.4288,682.4375 1428.4288,682.9219 L1428.4288,683.7969 L1424.0694,683.7969 L1424.0694,681.375 Z " fill="#000000"/><text fill="#000000" font-family="sans-serif" font-size="14" lengthAdjust="spacing" textLength="161" x="1439.2725" y="685.3467">ApplicationCategories</text><line style="stroke:#181818;stroke-width:0.5;" x1="1411.2725" x2="1602.2725" y1="696.5" y2="696.5"/><text fill="#000000" font-family="sans-serif" font-size="14" lengthAdjust="spacing" textLength="132" x="1416.2725" y="713.4951">id: ID &#171;generated&#187;</text><text fill="#000000" font-family="sans-serif" font-size="14" lengthAdjust="spacing" textLength="82" x="1416.2725" y="729.792">name: Text</text><line style="stroke:#181818;stroke-width:0.5;" x1="1411.2725" x2="1602.2725" y1="737.0938" y2="737.0938"/></g><!--class ApplicationSpam--><g id="elem_ApplicationSpam"><rect codeLine="55" fill="#F1F1F1" height="80.5938" id="ApplicationSpam" rx="2.5" ry="2.5" style="stroke:#181818;stroke-width:0.5;" width="175" x="1369.2725" y="220.5"/><ellipse cx="1392.8225" cy="236.5" fill="#ADD1B2" rx="11" ry="11" style="stroke:#181818;stroke-width:1.0;"/><path d="M1391.6194,237.375 L1393.0725,237.375 L1393.0725,237.4844 C1393.0725,237.8906 1393.1038,238.0469 1393.1819,238.2031 C1393.3381,238.4531 1393.6194,238.6094 1393.9163,238.6094 C1394.1663,238.6094 1394.4319,238.4688 1394.5881,238.25 C1394.7131,238.0938 1394.7444,237.9375 1394.7444,237.4844 L1394.7444,235.5625 C1394.7444,235.4063 1394.7444,235.3594 1394.7288,235.2031 C1394.6663,234.7344 1394.3538,234.4219 1393.9006,234.4219 C1393.6506,234.4219 1393.385,234.5625 1393.2131,234.7813 C1393.1038,234.9531 1393.0725,235.1094 1393.0725,235.5625 L1393.0725,235.6875 L1391.6194,235.6875 L1391.6194,233.2813 L1395.6038,233.2813 L1395.6038,234.1406 C1395.6038,234.5469 1395.635,234.7188 1395.7131,234.875 C1395.885,235.125 1396.1663,235.2813 1396.4475,235.2813 C1396.7131,235.2813 1396.9788,235.1406 1397.1506,234.9219 C1397.26,234.75 1397.2913,234.6094 1397.2913,234.1406 L1397.2913,231.5938 L1389.6663,231.5938 C1389.2288,231.5938 1389.1038,231.6094 1388.9475,231.7031 C1388.6975,231.8594 1388.5413,232.1563 1388.5413,232.4375 C1388.5413,232.7188 1388.6819,232.9688 1388.9006,233.1406 C1389.0569,233.25 1389.2444,233.2813 1389.6663,233.2813 L1389.9163,233.2813 L1389.9163,239.7969 L1389.6663,239.7969 C1389.26,239.7969 1389.1038,239.8125 1388.9475,239.9219 C1388.6975,240.0938 1388.5413,240.3594 1388.5413,240.6563 C1388.5413,240.9219 1388.6819,241.1719 1388.9006,241.3281 C1389.0413,241.4531 1389.2756,241.5 1389.6663,241.5 L1397.6663,241.5 L1397.6663,238.9219 C1397.6663,238.4844 1397.635,238.3438 1397.5569,238.1875 C1397.385,237.9375 1397.1038,237.7813 1396.8225,237.7813 C1396.5569,237.7813 1396.2913,237.8906 1396.1194,238.1406 C1396.01,238.2969 1395.9788,238.4375 1395.9788,238.9219 L1395.9788,239.7969 L1391.6194,239.7969 L1391.6194,237.375 Z " fill="#000000"/><text fill="#000000" font-family="sans-serif" font-size="14" lengthAdjust="spacing" textLength="124" x="1408.7225" y="241.3467">ApplicationSpam</text><line style="stroke:#181818;stroke-width:0.5;" x1="1370.2725" x2="1543.2725" y1="252.5" y2="252.5"/><text fill="#000000" font-family="sans-serif" font-size="14" lengthAdjust="spacing" textLength="163" x="1375.2725" y="269.4951">application_id: ID &#171;FK&#187;</text><text fill="#000000" font-family="sans-serif" font-size="14" lengthAdjust="spacing" textLength="112" x="1375.2725" y="285.792">user_id: ID &#171;FK&#187;</text><line style="stroke:#181818;stroke-width:0.5;" x1="1370.2725" x2="1543.2725" y1="293.0938" y2="293.0938"/></g><!--class ApplicationValue--><g id="elem_ApplicationValue"><rect codeLine="60" fill="#F1F1F1" height="96.8906" id="ApplicationValue" rx="2.5" ry="2.5" style="stroke:#181818;stroke-width:0.5;" width="175" x="877.2705" y="212.5"/><ellipse cx="901.7205" cy="228.5" fill="#ADD1B2" rx="11" ry="11" style="stroke:#181818;stroke-width:1.0;"/><path d="M900.5174,229.375 L901.9705,229.375 L901.9705,229.4844 C901.9705,229.8906 902.0018,230.0469 902.0799,230.2031 C902.2361,230.4531 902.5174,230.6094 902.8143,230.6094 C903.0643,230.6094 903.3299,230.4688 903.4861,230.25 C903.6111,230.0938 903.6424,229.9375 903.6424,229.4844 L903.6424,227.5625 C903.6424,227.4063 903.6424,227.3594 903.6268,227.2031 C903.5643,226.7344 903.2518,226.4219 902.7986,226.4219 C902.5486,226.4219 902.283,226.5625 902.1111,226.7813 C902.0018,226.9531 901.9705,227.1094 901.9705,227.5625 L901.9705,227.6875 L900.5174,227.6875 L900.5174,225.2813 L904.5018,225.2813 L904.5018,226.1406 C904.5018,226.5469 904.533,226.7188 904.6111,226.875 C904.783,227.125 905.0643,227.2813 905.3455,227.2813 C905.6111,227.2813 905.8768,227.1406 906.0486,226.9219 C906.158,226.75 906.1893,226.6094 906.1893,226.1406 L906.1893,223.5938 L898.5643,223.5938 C898.1268,223.5938 898.0018,223.6094 897.8455,223.7031 C897.5955,223.8594 897.4393,224.1563 897.4393,224.4375 C897.4393,224.7188 897.5799,224.9688 897.7986,225.1406 C897.9549,225.25 898.1424,225.2813 898.5643,225.2813 L898.8143,225.2813 L898.8143,231.7969 L898.5643,231.7969 C898.158,231.7969 898.0018,231.8125 897.8455,231.9219 C897.5955,232.0938 897.4393,232.3594 897.4393,232.6563 C897.4393,232.9219 897.5799,233.1719 897.7986,233.3281 C897.9393,233.4531 898.1736,233.5 898.5643,233.5 L906.5643,233.5 L906.5643,230.9219 C906.5643,230.4844 906.533,230.3438 906.4549,230.1875 C906.283,229.9375 906.0018,229.7813 905.7205,229.7813 C905.4549,229.7813 905.1893,229.8906 905.0174,230.1406 C904.908,230.2969 904.8768,230.4375 904.8768,230.9219 L904.8768,231.7969 L900.5174,231.7969 L900.5174,229.375 Z " fill="#000000"/><text fill="#000000" font-family="sans-serif" font-size="14" lengthAdjust="spacing" textLength="122" x="917.8205" y="233.3467">ApplicationValue</text><line style="stroke:#181818;stroke-width:0.5;" x1="878.2705" x2="1051.2705" y1="244.5" y2="244.5"/><text fill="#000000" font-family="sans-serif" font-size="14" lengthAdjust="spacing" textLength="163" x="883.2705" y="261.4951">application_id: ID &#171;FK&#187;</text><text fill="#000000" font-family="sans-serif" font-size="14" lengthAdjust="spacing" textLength="112" x="883.2705" y="277.792">user_id: ID &#171;FK&#187;</text><text fill="#000000" font-family="sans-serif" font-size="14" lengthAdjust="spacing" textLength="103" x="883.2705" y="294.0889">value: Number</text><line style="stroke:#181818;stroke-width:0.5;" x1="878.2705" x2="1051.2705" y1="301.3906" y2="301.3906"/></g><!--class Comments--><g id="elem_Comments"><rect codeLine="66" fill="#F1F1F1" height="129.4844" id="Comments" rx="2.5" ry="2.5" style="stroke:#181818;stroke-width:0.5;" width="175" x="1087.2705" y="196.5"/><ellipse cx="1131.0705" cy="212.5" fill="#ADD1B2" rx="11" ry="11" style="stroke:#181818;stroke-width:1.0;"/><path d="M1129.8674,213.375 L1131.3205,213.375 L1131.3205,213.4844 C1131.3205,213.8906 1131.3518,214.0469 1131.4299,214.2031 C1131.5861,214.4531 1131.8674,214.6094 1132.1643,214.6094 C1132.4143,214.6094 1132.6799,214.4688 1132.8361,214.25 C1132.9611,214.0938 1132.9924,213.9375 1132.9924,213.4844 L1132.9924,211.5625 C1132.9924,211.4063 1132.9924,211.3594 1132.9768,211.2031 C1132.9143,210.7344 1132.6018,210.4219 1132.1486,210.4219 C1131.8986,210.4219 1131.633,210.5625 1131.4611,210.7813 C1131.3518,210.9531 1131.3205,211.1094 1131.3205,211.5625 L1131.3205,211.6875 L1129.8674,211.6875 L1129.8674,209.2813 L1133.8518,209.2813 L1133.8518,210.1406 C1133.8518,210.5469 1133.883,210.7188 1133.9611,210.875 C1134.133,211.125 1134.4143,211.2813 1134.6955,211.2813 C1134.9611,211.2813 1135.2268,211.1406 1135.3986,210.9219 C1135.508,210.75 1135.5393,210.6094 1135.5393,210.1406 L1135.5393,207.5938 L1127.9143,207.5938 C1127.4768,207.5938 1127.3518,207.6094 1127.1955,207.7031 C1126.9455,207.8594 1126.7893,208.1563 1126.7893,208.4375 C1126.7893,208.7188 1126.9299,208.9688 1127.1486,209.1406 C1127.3049,209.25 1127.4924,209.2813 1127.9143,209.2813 L1128.1643,209.2813 L1128.1643,215.7969 L1127.9143,215.7969 C1127.508,215.7969 1127.3518,215.8125 1127.1955,215.9219 C1126.9455,216.0938 1126.7893,216.3594 1126.7893,216.6563 C1126.7893,216.9219 1126.9299,217.1719 1127.1486,217.3281 C1127.2893,217.4531 1127.5236,217.5 1127.9143,217.5 L1135.9143,217.5 L1135.9143,214.9219 C1135.9143,214.4844 1135.883,214.3438 1135.8049,214.1875 C1135.633,213.9375 1135.3518,213.7813 1135.0705,213.7813 C1134.8049,213.7813 1134.5393,213.8906 1134.3674,214.1406 C1134.258,214.2969 1134.2268,214.4375 1134.2268,214.9219 L1134.2268,215.7969 L1129.8674,215.7969 L1129.8674,213.375 Z " fill="#000000"/><text fill="#000000" font-family="sans-serif" font-size="14" lengthAdjust="spacing" textLength="79" x="1151.4705" y="217.3467">Comments</text><line style="stroke:#181818;stroke-width:0.5;" x1="1088.2705" x2="1261.2705" y1="228.5" y2="228.5"/><text fill="#000000" font-family="sans-serif" font-size="14" lengthAdjust="spacing" textLength="132" x="1093.2705" y="245.4951">id: ID &#171;generated&#187;</text><text fill="#000000" font-family="sans-serif" font-size="14" lengthAdjust="spacing" textLength="158" x="1093.2705" y="261.792">created_at: DateTime</text><text fill="#000000" font-family="sans-serif" font-size="14" lengthAdjust="spacing" textLength="162" x="1093.2705" y="278.0889">updated_at: DateTime</text><line style="stroke:#181818;stroke-width:1.0;" x1="1088.2705" x2="1261.2705" y1="285.3906" y2="285.3906"/><text fill="#000000" font-family="sans-serif" font-size="14" lengthAdjust="spacing" textLength="163" x="1093.2705" y="302.3857">application_id: ID &#171;FK&#187;</text><text fill="#000000" font-family="sans-serif" font-size="14" lengthAdjust="spacing" textLength="112" x="1093.2705" y="318.6826">user_id: ID &#171;FK&#187;</text></g><!--class CommentsSpam--><g id="elem_CommentsSpam"><rect codeLine="75" fill="#F1F1F1" height="80.5938" id="CommentsSpam" rx="2.5" ry="2.5" style="stroke:#181818;stroke-width:0.5;" width="164" x="855.7705" y="23"/><ellipse cx="876.1705" cy="39" fill="#ADD1B2" rx="11" ry="11" style="stroke:#181818;stroke-width:1.0;"/><path d="M874.9674,39.875 L876.4205,39.875 L876.4205,39.9844 C876.4205,40.3906 876.4518,40.5469 876.5299,40.7031 C876.6861,40.9531 876.9674,41.1094 877.2643,41.1094 C877.5143,41.1094 877.7799,40.9688 877.9361,40.75 C878.0611,40.5938 878.0924,40.4375 878.0924,39.9844 L878.0924,38.0625 C878.0924,37.9063 878.0924,37.8594 878.0768,37.7031 C878.0143,37.2344 877.7018,36.9219 877.2486,36.9219 C876.9986,36.9219 876.733,37.0625 876.5611,37.2813 C876.4518,37.4531 876.4205,37.6094 876.4205,38.0625 L876.4205,38.1875 L874.9674,38.1875 L874.9674,35.7813 L878.9518,35.7813 L878.9518,36.6406 C878.9518,37.0469 878.983,37.2188 879.0611,37.375 C879.233,37.625 879.5143,37.7813 879.7955,37.7813 C880.0611,37.7813 880.3268,37.6406 880.4986,37.4219 C880.608,37.25 880.6393,37.1094 880.6393,36.6406 L880.6393,34.0938 L873.0143,34.0938 C872.5768,34.0938 872.4518,34.1094 872.2955,34.2031 C872.0455,34.3594 871.8893,34.6563 871.8893,34.9375 C871.8893,35.2188 872.0299,35.4688 872.2486,35.6406 C872.4049,35.75 872.5924,35.7813 873.0143,35.7813 L873.2643,35.7813 L873.2643,42.2969 L873.0143,42.2969 C872.608,42.2969 872.4518,42.3125 872.2955,42.4219 C872.0455,42.5938 871.8893,42.8594 871.8893,43.1563 C871.8893,43.4219 872.0299,43.6719 872.2486,43.8281 C872.3893,43.9531 872.6236,44 873.0143,44 L881.0143,44 L881.0143,41.4219 C881.0143,40.9844 880.983,40.8438 880.9049,40.6875 C880.733,40.4375 880.4518,40.2813 880.1705,40.2813 C879.9049,40.2813 879.6393,40.3906 879.4674,40.6406 C879.358,40.7969 879.3268,40.9375 879.3268,41.4219 L879.3268,42.2969 L874.9674,42.2969 L874.9674,39.875 Z " fill="#000000"/><text fill="#000000" font-family="sans-serif" font-size="14" lengthAdjust="spacing" textLength="120" x="891.3705" y="43.8467">CommentsSpam</text><line style="stroke:#181818;stroke-width:0.5;" x1="856.7705" x2="1018.7705" y1="55" y2="55"/><text fill="#000000" font-family="sans-serif" font-size="14" lengthAdjust="spacing" textLength="152" x="861.7705" y="71.9951">comment_id: ID &#171;FK&#187;</text><text fill="#000000" font-family="sans-serif" font-size="14" lengthAdjust="spacing" textLength="112" x="861.7705" y="88.292">user_id: ID &#171;FK&#187;</text><line style="stroke:#181818;stroke-width:0.5;" x1="856.7705" x2="1018.7705" y1="95.5938" y2="95.5938"/></g><!--class CommentsHelpful--><g id="elem_CommentsHelpful"><rect codeLine="80" fill="#F1F1F1" height="80.5938" id="CommentsHelpful" rx="2.5" ry="2.5" style="stroke:#181818;stroke-width:0.5;" width="164" x="332.7705" y="23"/><ellipse cx="348.6705" cy="39" fill="#ADD1B2" rx="11" ry="11" style="stroke:#181818;stroke-width:1.0;"/><path d="M347.4674,39.875 L348.9205,39.875 L348.9205,39.9844 C348.9205,40.3906 348.9517,40.5469 349.0299,40.7031 C349.1861,40.9531 349.4674,41.1094 349.7642,41.1094 C350.0142,41.1094 350.2799,40.9688 350.4361,40.75 C350.5611,40.5938 350.5924,40.4375 350.5924,39.9844 L350.5924,38.0625 C350.5924,37.9063 350.5924,37.8594 350.5767,37.7031 C350.5142,37.2344 350.2017,36.9219 349.7486,36.9219 C349.4986,36.9219 349.233,37.0625 349.0611,37.2813 C348.9517,37.4531 348.9205,37.6094 348.9205,38.0625 L348.9205,38.1875 L347.4674,38.1875 L347.4674,35.7813 L351.4517,35.7813 L351.4517,36.6406 C351.4517,37.0469 351.483,37.2188 351.5611,37.375 C351.733,37.625 352.0142,37.7813 352.2955,37.7813 C352.5611,37.7813 352.8267,37.6406 352.9986,37.4219 C353.108,37.25 353.1392,37.1094 353.1392,36.6406 L353.1392,34.0938 L345.5142,34.0938 C345.0767,34.0938 344.9517,34.1094 344.7955,34.2031 C344.5455,34.3594 344.3892,34.6563 344.3892,34.9375 C344.3892,35.2188 344.5299,35.4688 344.7486,35.6406 C344.9049,35.75 345.0924,35.7813 345.5142,35.7813 L345.7642,35.7813 L345.7642,42.2969 L345.5142,42.2969 C345.108,42.2969 344.9517,42.3125 344.7955,42.4219 C344.5455,42.5938 344.3892,42.8594 344.3892,43.1563 C344.3892,43.4219 344.5299,43.6719 344.7486,43.8281 C344.8892,43.9531 345.1236,44 345.5142,44 L353.5142,44 L353.5142,41.4219 C353.5142,40.9844 353.483,40.8438 353.4049,40.6875 C353.233,40.4375 352.9517,40.2813 352.6705,40.2813 C352.4049,40.2813 352.1392,40.3906 351.9674,40.6406 C351.858,40.7969 351.8267,40.9375 351.8267,41.4219 L351.8267,42.2969 L347.4674,42.2969 L347.4674,39.875 Z " fill="#000000"/><text fill="#000000" font-family="sans-serif" font-size="14" lengthAdjust="spacing" textLength="130" x="362.8705" y="43.8467">CommentsHelpful</text><line style="stroke:#181818;stroke-width:0.5;" x1="333.7705" x2="495.7705" y1="55" y2="55"/><text fill="#000000" font-family="sans-serif" font-size="14" lengthAdjust="spacing" textLength="152" x="338.7705" y="71.9951">comment_id: ID &#171;FK&#187;</text><text fill="#000000" font-family="sans-serif" font-size="14" lengthAdjust="spacing" textLength="112" x="338.7705" y="88.292">user_id: ID &#171;FK&#187;</text><line style="stroke:#181818;stroke-width:0.5;" x1="333.7705" x2="495.7705" y1="95.5938" y2="95.5938"/></g><!--class Reviews--><g id="elem_Reviews"><rect codeLine="85" fill="#F1F1F1" height="113.1875" id="Reviews" rx="2.5" ry="2.5" style="stroke:#181818;stroke-width:0.5;" width="295" x="1168.2725" y="7"/><ellipse cx="1282.5225" cy="23" fill="#ADD1B2" rx="11" ry="11" style="stroke:#181818;stroke-width:1.0;"/><path d="M1281.3194,23.875 L1282.7725,23.875 L1282.7725,23.9844 C1282.7725,24.3906 1282.8038,24.5469 1282.8819,24.7031 C1283.0381,24.9531 1283.3194,25.1094 1283.6163,25.1094 C1283.8663,25.1094 1284.1319,24.9688 1284.2881,24.75 C1284.4131,24.5938 1284.4444,24.4375 1284.4444,23.9844 L1284.4444,22.0625 C1284.4444,21.9063 1284.4444,21.8594 1284.4288,21.7031 C1284.3663,21.2344 1284.0538,20.9219 1283.6006,20.9219 C1283.3506,20.9219 1283.085,21.0625 1282.9131,21.2813 C1282.8038,21.4531 1282.7725,21.6094 1282.7725,22.0625 L1282.7725,22.1875 L1281.3194,22.1875 L1281.3194,19.7813 L1285.3038,19.7813 L1285.3038,20.6406 C1285.3038,21.0469 1285.335,21.2188 1285.4131,21.375 C1285.585,21.625 1285.8663,21.7813 1286.1475,21.7813 C1286.4131,21.7813 1286.6788,21.6406 1286.8506,21.4219 C1286.96,21.25 1286.9913,21.1094 1286.9913,20.6406 L1286.9913,18.0938 L1279.3663,18.0938 C1278.9288,18.0938 1278.8038,18.1094 1278.6475,18.2031 C1278.3975,18.3594 1278.2413,18.6563 1278.2413,18.9375 C1278.2413,19.2188 1278.3819,19.4688 1278.6006,19.6406 C1278.7569,19.75 1278.9444,19.7813 1279.3663,19.7813 L1279.6163,19.7813 L1279.6163,26.2969 L1279.3663,26.2969 C1278.96,26.2969 1278.8038,26.3125 1278.6475,26.4219 C1278.3975,26.5938 1278.2413,26.8594 1278.2413,27.1563 C1278.2413,27.4219 1278.3819,27.6719 1278.6006,27.8281 C1278.7413,27.9531 1278.9756,28 1279.3663,28 L1287.3663,28 L1287.3663,25.4219 C1287.3663,24.9844 1287.335,24.8438 1287.2569,24.6875 C1287.085,24.4375 1286.8038,24.2813 1286.5225,24.2813 C1286.2569,24.2813 1285.9913,24.3906 1285.8194,24.6406 C1285.71,24.7969 1285.6788,24.9375 1285.6788,25.4219 L1285.6788,26.2969 L1281.3194,26.2969 L1281.3194,23.875 Z " fill="#000000"/><text fill="#000000" font-family="sans-serif" font-size="14" lengthAdjust="spacing" textLength="58" x="1303.0225" y="27.8467">Reviews</text><line style="stroke:#181818;stroke-width:0.5;" x1="1169.2725" x2="1462.2725" y1="39" y2="39"/><text fill="#000000" font-family="sans-serif" font-size="14" lengthAdjust="spacing" textLength="152" x="1174.2725" y="55.9951">comment_id: ID &#171;FK&#187;</text><text fill="#000000" font-family="sans-serif" font-size="14" lengthAdjust="spacing" textLength="163" x="1174.2725" y="72.292">application_id: ID &#171;FK&#187;</text><text fill="#000000" font-family="sans-serif" font-size="14" lengthAdjust="spacing" textLength="144" x="1174.2725" y="88.5889">reviewer_id: ID &#171;FK&#187;</text><line style="stroke:#181818;stroke-width:0.5;" x1="1169.2725" x2="1462.2725" y1="95.8906" y2="95.8906"/><text fill="#000000" font-family="sans-serif" font-size="14" lengthAdjust="spacing" textLength="283" x="1174.2725" y="112.8857">PrimaryKey(reviewer_id, application_id)</text></g><!--class Wave--><g id="elem_Wave"><rect codeLine="93" fill="#F1F1F1" height="162.0781" id="Wave" rx="2.5" ry="2.5" style="stroke:#181818;stroke-width:0.5;" width="174" x="1638.7725" y="624"/><ellipse cx="1702.0225" cy="640" fill="#ADD1B2" rx="11" ry="11" style="stroke:#181818;stroke-width:1.0;"/><path d="M1700.8194,640.875 L1702.2725,640.875 L1702.2725,640.9844 C1702.2725,641.3906 1702.3038,641.5469 1702.3819,641.7031 C1702.5381,641.9531 1702.8194,642.1094 1703.1163,642.1094 C1703.3663,642.1094 1703.6319,641.9688 1703.7881,641.75 C1703.9131,641.5938 1703.9444,641.4375 1703.9444,640.9844 L1703.9444,639.0625 C1703.9444,638.9063 1703.9444,638.8594 1703.9288,638.7031 C1703.8663,638.2344 1703.5538,637.9219 1703.1006,637.9219 C1702.8506,637.9219 1702.585,638.0625 1702.4131,638.2813 C1702.3038,638.4531 1702.2725,638.6094 1702.2725,639.0625 L1702.2725,639.1875 L1700.8194,639.1875 L1700.8194,636.7813 L1704.8038,636.7813 L1704.8038,637.6406 C1704.8038,638.0469 1704.835,638.2188 1704.9131,638.375 C1705.085,638.625 1705.3663,638.7813 1705.6475,638.7813 C1705.9131,638.7813 1706.1788,638.6406 1706.3506,638.4219 C1706.46,638.25 1706.4913,638.1094 1706.4913,637.6406 L1706.4913,635.0938 L1698.8663,635.0938 C1698.4288,635.0938 1698.3038,635.1094 1698.1475,635.2031 C1697.8975,635.3594 1697.7413,635.6563 1697.7413,635.9375 C1697.7413,636.2188 1697.8819,636.4688 1698.1006,636.6406 C1698.2569,636.75 1698.4444,636.7813 1698.8663,636.7813 L1699.1163,636.7813 L1699.1163,643.2969 L1698.8663,643.2969 C1698.46,643.2969 1698.3038,643.3125 1698.1475,643.4219 C1697.8975,643.5938 1697.7413,643.8594 1697.7413,644.1563 C1697.7413,644.4219 1697.8819,644.6719 1698.1006,644.8281 C1698.2413,644.9531 1698.4756,645 1698.8663,645 L1706.8663,645 L1706.8663,642.4219 C1706.8663,641.9844 1706.835,641.8438 1706.7569,641.6875 C1706.585,641.4375 1706.3038,641.2813 1706.0225,641.2813 C1705.7569,641.2813 1705.4913,641.3906 1705.3194,641.6406 C1705.21,641.7969 1705.1788,641.9375 1705.1788,642.4219 L1705.1788,643.2969 L1700.8194,643.2969 L1700.8194,640.875 Z " fill="#000000"/><text fill="#000000" font-family="sans-serif" font-size="14" lengthAdjust="spacing" textLength="39" x="1722.5225" y="644.8467">Wave</text><line style="stroke:#181818;stroke-width:0.5;" x1="1639.7725" x2="1811.7725" y1="656" y2="656"/><text fill="#000000" font-family="sans-serif" font-size="14" lengthAdjust="spacing" textLength="132" x="1644.7725" y="672.9951">id: ID &#171;generated&#187;</text><text fill="#000000" font-family="sans-serif" font-size="14" lengthAdjust="spacing" textLength="158" x="1644.7725" y="689.292">created_at: DateTime</text><text fill="#000000" font-family="sans-serif" font-size="14" lengthAdjust="spacing" textLength="162" x="1644.7725" y="705.5889">updated_at: DateTime</text><text fill="#000000" font-family="sans-serif" font-size="14" lengthAdjust="spacing" textLength="82" x="1644.7725" y="721.8857">name: Text</text><text fill="#000000" font-family="sans-serif" font-size="14" lengthAdjust="spacing" textLength="155" x="1644.7725" y="738.1826">start_date: DateTime</text><text fill="#000000" font-family="sans-serif" font-size="14" lengthAdjust="spacing" textLength="147" x="1644.7725" y="754.4795">end_date: DateTime</text><text fill="#000000" font-family="sans-serif" font-size="14" lengthAdjust="spacing" textLength="133" x="1644.7725" y="770.7764">phase: WavePhase</text><line style="stroke:#181818;stroke-width:0.5;" x1="1639.7725" x2="1811.7725" y1="778.0781" y2="778.0781"/></g><!--class WavePhase--><g id="elem_WavePhase"><rect codeLine="127" fill="#F1F1F1" height="113.1875" id="WavePhase" rx="2.5" ry="2.5" style="stroke:#181818;stroke-width:0.5;" width="113" x="1669.2725" y="426.5"/><ellipse cx="1684.2725" cy="442.5" fill="#EB937F" rx="11" ry="11" style="stroke:#181818;stroke-width:1.0;"/><path d="M1683.0694,443.375 L1684.5225,443.375 L1684.5225,443.4844 C1684.5225,443.8906 1684.5538,444.0469 1684.6319,444.2031 C1684.7881,444.4531 1685.0694,444.6094 1685.3663,444.6094 C1685.6163,444.6094 1685.8819,444.4688 1686.0381,444.25 C1686.1631,444.0938 1686.1944,443.9375 1686.1944,443.4844 L1686.1944,441.5625 C1686.1944,441.4063 1686.1944,441.3594 1686.1788,441.2031 C1686.1163,440.7344 1685.8038,440.4219 1685.3506,440.4219 C1685.1006,440.4219 1684.835,440.5625 1684.6631,440.7813 C1684.5538,440.9531 1684.5225,441.1094 1684.5225,441.5625 L1684.5225,441.6875 L1683.0694,441.6875 L1683.0694,439.2813 L1687.0538,439.2813 L1687.0538,440.1406 C1687.0538,440.5469 1687.085,440.7188 1687.1631,440.875 C1687.335,441.125 1687.6163,441.2813 1687.8975,441.2813 C1688.1631,441.2813 1688.4288,441.1406 1688.6006,440.9219 C1688.71,440.75 1688.7413,440.6094 1688.7413,440.1406 L1688.7413,437.5938 L1681.1163,437.5938 C1680.6788,437.5938 1680.5538,437.6094 1680.3975,437.7031 C1680.1475,437.8594 1679.9913,438.1563 1679.9913,438.4375 C1679.9913,438.7188 1680.1319,438.9688 1680.3506,439.1406 C1680.5069,439.25 1680.6944,439.2813 1681.1163,439.2813 L1681.3663,439.2813 L1681.3663,445.7969 L1681.1163,445.7969 C1680.71,445.7969 1680.5538,445.8125 1680.3975,445.9219 C1680.1475,446.0938 1679.9913,446.3594 1679.9913,446.6563 C1679.9913,446.9219 1680.1319,447.1719 1680.3506,447.3281 C1680.4913,447.4531 1680.7256,447.5 1681.1163,447.5 L1689.1163,447.5 L1689.1163,444.9219 C1689.1163,444.4844 1689.085,444.3438 1689.0069,444.1875 C1688.835,443.9375 1688.5538,443.7813 1688.2725,443.7813 C1688.0069,443.7813 1687.7413,443.8906 1687.5694,444.1406 C1687.46,444.2969 1687.4288,444.4375 1687.4288,444.9219 L1687.4288,445.7969 L1683.0694,445.7969 L1683.0694,443.375 Z " fill="#000000"/><text fill="#000000" font-family="sans-serif" font-size="14" lengthAdjust="spacing" textLength="81" x="1698.2725" y="447.3467">WavePhase</text><line style="stroke:#181818;stroke-width:0.5;" x1="1670.2725" x2="1781.2725" y1="458.5" y2="458.5"/><text fill="#000000" font-family="sans-serif" font-size="14" lengthAdjust="spacing" textLength="39" x="1675.2725" y="475.4951">OPEN</text><text fill="#000000" font-family="sans-serif" font-size="14" lengthAdjust="spacing" textLength="79" x="1675.2725" y="491.792">DENOISING</text><text fill="#000000" font-family="sans-serif" font-size="14" lengthAdjust="spacing" textLength="95" x="1675.2725" y="508.0889">ASSESEMENT</text><text fill="#000000" font-family="sans-serif" font-size="14" lengthAdjust="spacing" textLength="58" x="1675.2725" y="524.3857">CLOSED</text><line style="stroke:#181818;stroke-width:0.5;" x1="1670.2725" x2="1781.2725" y1="531.6875" y2="531.6875"/></g><!--link Reviewers to UserAccounts--><g id="link_Reviewers_UserAccounts"><path codeLine="104" d="M335.6193,535.8981 C354.3773,547.7031 368.4385,555.214 388.7705,564 C539.6845,629.216 710.1741,666.3116 819.8611,686.0532 " fill="none" id="Reviewers-UserAccounts" style="stroke:#181818;stroke-width:1.0;"/><line style="stroke:#181818;stroke-width:1.0;" x1="330.1034" x2="334.3644" y1="537.1529" y2="530.3821"/><line style="stroke:#181818;stroke-width:1.0;" x1="332.6424" x2="336.9035" y1="538.7508" y2="531.98"/><line style="stroke:#181818;stroke-width:1.0;" x1="335.6193" x2="328.8485" y1="535.8981" y2="531.637"/><line style="stroke:#181818;stroke-width:1.0;" x1="829.703" x2="838.6393" y1="687.8245" y2="683.3365"/><line style="stroke:#181818;stroke-width:1.0;" x1="829.703" x2="836.5137" y1="687.8245" y2="695.1467"/><line style="stroke:#181818;stroke-width:1.0;" x1="829.703" x2="837.5765" y1="687.8245" y2="689.2416"/><ellipse cx="823.7979" cy="686.7617" fill="none" rx="4" ry="4" style="stroke:#181818;stroke-width:1.0;"/></g><!--link Moderators to UserAccounts--><g id="link_Moderators_UserAccounts"><path codeLine="105" d="M583.4553,527.8724 C604.3863,541.2024 621.4755,551.547 643.7705,564 C707.3005,599.483 764.8046,627.9234 821.3806,654.5824 " fill="none" id="Moderators-UserAccounts" style="stroke:#181818;stroke-width:1.0;"/><line style="stroke:#181818;stroke-width:1.0;" x1="577.9327" x2="582.2301" y1="529.0976" y2="522.3498"/><line style="stroke:#181818;stroke-width:1.0;" x1="580.4631" x2="584.7605" y1="530.7091" y2="523.9613"/><line style="stroke:#181818;stroke-width:1.0;" x1="583.4553" x2="576.7075" y1="527.8724" y2="523.575"/><line style="stroke:#181818;stroke-width:1.0;" x1="830.4267" x2="840.221" y1="658.845" y2="656.8274"/><line style="stroke:#181818;stroke-width:1.0;" x1="830.4267" x2="835.106" y1="658.845" y2="667.6826"/><line style="stroke:#181818;stroke-width:1.0;" x1="830.4267" x2="837.6635" y1="658.845" y2="662.255"/><ellipse cx="824.9991" cy="656.2874" fill="none" rx="4" ry="4" style="stroke:#181818;stroke-width:1.0;"/></g><!--link Applications to Wave--><g id="link_Applications_Wave"><path codeLine="106" d="M1604.5393,569.9798 C1622.0993,589.3918 1623.4383,590.8683 1641.0083,610.2943 " fill="none" id="Applications-Wave" style="stroke:#181818;stroke-width:1.0;"/><line style="stroke:#181818;stroke-width:1.0;" x1="1598.8895" x2="1604.8223" y1="569.6968" y2="564.33"/><line style="stroke:#181818;stroke-width:1.0;" x1="1600.902" x2="1606.8348" y1="571.9216" y2="566.5548"/><line style="stroke:#181818;stroke-width:1.0;" x1="1604.5393" x2="1599.1725" y1="569.9798" y2="564.047"/><line style="stroke:#181818;stroke-width:1.0;" x1="1647.7162" x2="1657.5324" y1="617.7108" y2="619.6193"/><line style="stroke:#181818;stroke-width:1.0;" x1="1647.7162" x2="1648.6326" y1="617.7108" y2="627.6687"/><line style="stroke:#181818;stroke-width:1.0;" x1="1647.7162" x2="1653.0825" y1="617.7108" y2="623.644"/><ellipse cx="1643.6914" cy="613.2609" fill="none" rx="4" ry="4" style="stroke:#181818;stroke-width:1.0;"/></g><!--link Applications to UserAccounts--><g id="link_Applications_UserAccounts"><path codeLine="107" d="M1432.6725,553.5715 C1423.8625,558.8865 1421.7125,559.717 1412.7725,564 C1282.8025,626.259 1137.2879,662.714 1037.4999,683.3959 " fill="none" id="Applications-UserAccounts" style="stroke:#181818;stroke-width:1.0;"/><line style="stroke:#181818;stroke-width:1.0;" x1="1434.0312" x2="1438.1638" y1="548.0803" y2="554.9303"/><line style="stroke:#181818;stroke-width:1.0;" x1="1431.4625" x2="1435.595" y1="549.63" y2="556.48"/><line style="stroke:#181818;stroke-width:1.0;" x1="1432.6725" x2="1439.5225" y1="553.5715" y2="549.439"/><line style="stroke:#181818;stroke-width:1.0;" x1="1027.708" x2="1021.0922" y1="685.4253" y2="692.924"/><line style="stroke:#181818;stroke-width:1.0;" x1="1027.708" x2="1018.6568" y1="685.4253" y2="681.1738"/><line style="stroke:#181818;stroke-width:1.0;" x1="1027.708" x2="1019.8745" y1="685.4253" y2="687.0489"/><ellipse cx="1033.5832" cy="684.2077" fill="none" rx="4" ry="4" style="stroke:#181818;stroke-width:1.0;"/></g><!--link Comments to Applications--><g id="link_Comments_Applications"><path codeLine="108" d="M1269.4667,321.1877 C1323.5367,354.9777 1370.4879,384.328 1424.4079,418.023 " fill="none" id="Comments-Applications" style="stroke:#181818;stroke-width:1.0;"/><line style="stroke:#181818;stroke-width:1.0;" x1="1263.9548" x2="1268.1944" y1="322.4599" y2="315.6757"/><line style="stroke:#181818;stroke-width:1.0;" x1="1266.4988" x2="1270.7385" y1="324.0498" y2="317.2656"/><line style="stroke:#181818;stroke-width:1.0;" x1="1269.4667" x2="1262.6825" y1="321.1877" y2="316.948"/><line style="stroke:#181818;stroke-width:1.0;" x1="1432.8882" x2="1442.8522" y1="423.3225" y2="422.4738"/><line style="stroke:#181818;stroke-width:1.0;" x1="1432.8882" x2="1436.4928" y1="423.3225" y2="432.6502"/><line style="stroke:#181818;stroke-width:1.0;" x1="1432.8882" x2="1439.6725" y1="423.3225" y2="427.562"/><ellipse cx="1427.8" cy="420.1428" fill="none" rx="4" ry="4" style="stroke:#181818;stroke-width:1.0;"/></g><!--link Comments to UserAccounts--><g id="link_Comments_UserAccounts"><path codeLine="109" d="M1135.372,332.7893 C1087.139,419.4513 1014.3341,550.2629 968.5461,632.5329 " fill="none" id="Comments-UserAccounts" style="stroke:#181818;stroke-width:1.0;"/><line style="stroke:#181818;stroke-width:1.0;" x1="1133.8221" x2="1140.8124" y1="327.3489" y2="331.2394"/><line style="stroke:#181818;stroke-width:1.0;" x1="1132.3632" x2="1139.3534" y1="329.9702" y2="333.8607"/><line style="stroke:#181818;stroke-width:1.0;" x1="1135.372" x2="1139.2625" y1="332.7893" y2="325.799"/><line style="stroke:#181818;stroke-width:1.0;" x1="963.683" x2="965.0352" y1="641.2707" y2="651.1789"/><line style="stroke:#181818;stroke-width:1.0;" x1="963.683" x2="954.5498" y1="641.2707" y2="645.3431"/><line style="stroke:#181818;stroke-width:1.0;" x1="963.683" x2="959.7925" y1="641.2707" y2="648.261"/><ellipse cx="966.6009" cy="636.028" fill="none" rx="4" ry="4" style="stroke:#181818;stroke-width:1.0;"/></g><!--link Reviews to Comments--><g id="link_Reviews_Comments"><path codeLine="110" d="M1270.8734,126.7499 C1253.7834,150.4499 1248.9626,157.1294 1231.2826,181.6404 " fill="none" id="Reviews-Comments" style="stroke:#181818;stroke-width:1.0;"/><line style="stroke:#181818;stroke-width:1.0;" x1="1269.9685" x2="1276.4574" y1="121.1659" y2="125.845"/><line style="stroke:#181818;stroke-width:1.0;" x1="1268.2138" x2="1274.7027" y1="123.5992" y2="128.2783"/><line style="stroke:#181818;stroke-width:1.0;" x1="1270.8734" x2="1275.5525" y1="126.7499" y2="120.261"/><line style="stroke:#181818;stroke-width:1.0;" x1="1225.4325" x2="1225.6187" y1="189.7508" y2="199.749"/><line style="stroke:#181818;stroke-width:1.0;" x1="1225.4325" x2="1215.8863" y1="189.7508" y2="192.729"/><line style="stroke:#181818;stroke-width:1.0;" x1="1225.4325" x2="1220.7525" y1="189.7508" y2="196.239"/><ellipse cx="1228.9426" cy="184.8846" fill="none" rx="4" ry="4" style="stroke:#181818;stroke-width:1.0;"/></g><!--link Reviews to Applications--><g id="link_Reviews_Applications"><path codeLine="111" d="M1470.8344,105.4103 C1509.3444,122.6473 1539.0625,144.256 1561.7725,180 C1603.7925,246.161 1591.3058,320.2191 1568.3458,384.9981 " fill="none" id="Reviews-Applications" style="stroke:#181818;stroke-width:1.0;"/><line style="stroke:#181818;stroke-width:1.0;" x1="1465.5493" x2="1468.8176" y1="107.4271" y2="100.1252"/><line style="stroke:#181818;stroke-width:1.0;" x1="1468.2875" x2="1471.5558" y1="108.6527" y2="101.3508"/><line style="stroke:#181818;stroke-width:1.0;" x1="1470.8344" x2="1463.5325" y1="105.4103" y2="102.142"/><line style="stroke:#181818;stroke-width:1.0;" x1="1565.0051" x2="1567.9878" y1="394.4236" y2="403.9684"/><line style="stroke:#181818;stroke-width:1.0;" x1="1565.0051" x2="1556.6772" y1="394.4236" y2="399.9596"/><line style="stroke:#181818;stroke-width:1.0;" x1="1565.0051" x2="1562.3325" y1="394.4236" y2="401.964"/><ellipse cx="1567.0095" cy="388.7683" fill="none" rx="4" ry="4" style="stroke:#181818;stroke-width:1.0;"/></g><!--link Reviews to UserAccounts--><g id="link_Reviews_UserAccounts"><path codeLine="112" d="M1318.1994,128.1119 C1318.5394,186.1439 1312.8925,270.473 1279.7725,342 C1219.2625,472.674 1105.9161,573.9894 1022.3771,637.5074 " fill="none" id="Reviews-UserAccounts" style="stroke:#181818;stroke-width:1.0;"/><line style="stroke:#181818;stroke-width:1.0;" x1="1314.176" x2="1322.1759" y1="124.1354" y2="124.0885"/><line style="stroke:#181818;stroke-width:1.0;" x1="1314.1936" x2="1322.1934" y1="127.1353" y2="127.0884"/><line style="stroke:#181818;stroke-width:1.0;" x1="1318.1994" x2="1318.1525" y1="128.1119" y2="120.112"/><line style="stroke:#181818;stroke-width:1.0;" x1="1014.4168" x2="1011.68" y1="643.56" y2="653.1782"/><line style="stroke:#181818;stroke-width:1.0;" x1="1014.4168" x2="1004.417" y1="643.56" y2="643.6258"/><line style="stroke:#181818;stroke-width:1.0;" x1="1014.4168" x2="1008.0485" y1="643.56" y2="648.402"/><ellipse cx="1019.1929" cy="639.9284" fill="none" rx="4" ry="4" style="stroke:#181818;stroke-width:1.0;"/></g><!--link ApplicationContacts to Applications--><g id="link_ApplicationContacts_Applications"><path codeLine="113" d="M1657.3248,347.7819 C1638.4448,367.1939 1636.3846,369.3166 1617.4846,388.7426 " fill="none" id="ApplicationContacts-Applications" style="stroke:#181818;stroke-width:1.0;"/><line style="stroke:#181818;stroke-width:1.0;" x1="1657.2462" x2="1662.9811" y1="342.1256" y2="347.7033"/><line style="stroke:#181818;stroke-width:1.0;" x1="1655.1545" x2="1660.8894" y1="344.2762" y2="349.8539"/><line style="stroke:#181818;stroke-width:1.0;" x1="1657.3248" x2="1662.9025" y1="347.7819" y2="342.047"/><line style="stroke:#181818;stroke-width:1.0;" x1="1610.5112" x2="1609.233" y1="395.91" y2="405.828"/><line style="stroke:#181818;stroke-width:1.0;" x1="1610.5112" x2="1600.632" y1="395.91" y2="397.46"/><line style="stroke:#181818;stroke-width:1.0;" x1="1610.5112" x2="1604.9325" y1="395.91" y2="401.644"/><ellipse cx="1614.6952" cy="391.6096" fill="none" rx="4" ry="4" style="stroke:#181818;stroke-width:1.0;"/></g><!--link BlockedUsers to UserAccounts--><g id="link_BlockedUsers_UserAccounts"><path codeLine="114" d="M791.7964,530.3321 C813.9534,565.0941 835.176,595.1515 865.79,634.0485 " fill="none" id="BlockedUsers-UserAccounts" style="stroke:#181818;stroke-width:1.0;"/><line style="stroke:#181818;stroke-width:1.0;" x1="786.2734" x2="793.0195" y1="529.109" y2="524.8091"/><line style="stroke:#181818;stroke-width:1.0;" x1="787.8859" x2="794.632" y1="531.6388" y2="527.3389"/><line style="stroke:#181818;stroke-width:1.0;" x1="791.7964" x2="787.4965" y1="530.3321" y2="523.586"/><line style="stroke:#181818;stroke-width:1.0;" x1="871.9747" x2="881.6373" y1="641.9065" y2="644.4822"/><line style="stroke:#181818;stroke-width:1.0;" x1="871.9747" x2="872.2077" y1="641.9065" y2="651.9038"/><line style="stroke:#181818;stroke-width:1.0;" x1="871.9747" x2="876.9225" y1="641.9065" y2="648.193"/><ellipse cx="868.2639" cy="637.1917" fill="none" rx="4" ry="4" style="stroke:#181818;stroke-width:1.0;"/></g><!--link BlockedUsers to UserAccounts--><g id="link_BlockedUsers_UserAccounts"><path codeLine="115" d="M813.2981,529.7648 C841.8871,564.5268 864.3253,594.3002 890.1503,633.1972 " fill="none" id="BlockedUsers-UserAccounts-1" style="stroke:#181818;stroke-width:1.0;"/><line style="stroke:#181818;stroke-width:1.0;" x1="807.6679" x2="813.8467" y1="529.2162" y2="524.1346"/><line style="stroke:#181818;stroke-width:1.0;" x1="809.5735" x2="815.7523" y1="531.5332" y2="526.4517"/><line style="stroke:#181818;stroke-width:1.0;" x1="813.2981" x2="808.2165" y1="529.7648" y2="523.586"/><line style="stroke:#181818;stroke-width:1.0;" x1="895.6815" x2="905.1051" y1="641.5282" y2="644.8743"/><line style="stroke:#181818;stroke-width:1.0;" x1="895.6815" x2="895.1079" y1="641.5282" y2="651.5117"/><line style="stroke:#181818;stroke-width:1.0;" x1="895.6815" x2="900.1065" y1="641.5282" y2="648.193"/><ellipse cx="892.3628" cy="636.5296" fill="none" rx="4" ry="4" style="stroke:#181818;stroke-width:1.0;"/></g><!--link Applications to ApplicationCategories--><g id="link_Applications_ApplicationCategories"><path codeLine="116" d="M1518.7694,572.0143 C1515.6694,606.1693 1514.5283,618.6006 1511.9983,646.4976 " fill="none" id="Applications-ApplicationCategories" style="stroke:#181818;stroke-width:1.0;"/><line style="stroke:#181818;stroke-width:1.0;" x1="1515.1473" x2="1523.1146" y1="567.6691" y2="568.3922"/><line style="stroke:#181818;stroke-width:1.0;" x1="1514.8761" x2="1522.8434" y1="570.6568" y2="571.3799"/><line style="stroke:#181818;stroke-width:1.0;" x1="1518.7694" x2="1519.4925" y1="572.0143" y2="564.047"/><line style="stroke:#181818;stroke-width:1.0;" x1="1511.0951" x2="1516.348" y1="656.4567" y2="664.9659"/><line style="stroke:#181818;stroke-width:1.0;" x1="1511.0951" x2="1504.397" y1="656.4567" y2="663.8821"/><line style="stroke:#181818;stroke-width:1.0;" x1="1511.0951" x2="1510.3725" y1="656.4567" y2="664.424"/><ellipse cx="1511.637" cy="650.4812" fill="none" rx="4" ry="4" style="stroke:#181818;stroke-width:1.0;"/></g><!--link ApplicationSpam to Applications--><g id="link_ApplicationSpam_Applications"><path codeLine="117" d="M1471.7891,309.2091 C1480.6491,337.0431 1484.924,350.4796 1495.774,384.5736 " fill="none" id="ApplicationSpam-Applications" style="stroke:#181818;stroke-width:1.0;"/><line style="stroke:#181818;stroke-width:1.0;" x1="1466.7642" x2="1474.3873" y1="306.6108" y2="304.1843"/><line style="stroke:#181818;stroke-width:1.0;" x1="1467.6742" x2="1475.2973" y1="309.4695" y2="307.0429"/><line style="stroke:#181818;stroke-width:1.0;" x1="1471.7891" x2="1469.3625" y1="309.2091" y2="301.586"/><line style="stroke:#181818;stroke-width:1.0;" x1="1498.8065" x2="1506.95" y1="394.1027" y2="399.9065"/><line style="stroke:#181818;stroke-width:1.0;" x1="1498.8065" x2="1495.515" y1="394.1027" y2="403.5455"/><line style="stroke:#181818;stroke-width:1.0;" x1="1498.8065" x2="1501.2325" y1="394.1027" y2="401.726"/><ellipse cx="1496.987" cy="388.3853" fill="none" rx="4" ry="4" style="stroke:#181818;stroke-width:1.0;"/></g><!--link ApplicationSpam to UserAccounts--><g id="link_ApplicationSpam_UserAccounts"><path codeLine="118" d="M1444.105,309.3209 C1423.955,382.3619 1380.6525,526.53 1341.7725,564 C1253.7225,648.843 1130.2219,679.8125 1037.8819,692.9929 " fill="none" id="ApplicationSpam-UserAccounts" style="stroke:#181818;stroke-width:1.0;"/><line style="stroke:#181818;stroke-width:1.0;" x1="1441.3128" x2="1449.0247" y1="304.4012" y2="306.5287"/><line style="stroke:#181818;stroke-width:1.0;" x1="1440.515" x2="1448.2269" y1="307.2932" y2="309.4207"/><line style="stroke:#181818;stroke-width:1.0;" x1="1444.105" x2="1446.2325" y1="309.3209" y2="301.609"/><line style="stroke:#181818;stroke-width:1.0;" x1="1027.9822" x2="1020.9103" y1="694.406" y2="701.4762"/><line style="stroke:#181818;stroke-width:1.0;" x1="1027.9822" x2="1019.2147" y1="694.406" y2="689.5966"/><line style="stroke:#181818;stroke-width:1.0;" x1="1027.9822" x2="1020.0625" y1="694.406" y2="695.5364"/><ellipse cx="1033.922" cy="693.5581" fill="none" rx="4" ry="4" style="stroke:#181818;stroke-width:1.0;"/></g><!--link CommentsSpam to Comments--><g id="link_CommentsSpam_Comments"><path codeLine="119" d="M991.9019,109.1526 C1023.9589,135.5956 1046.7858,154.4263 1083.6068,184.7983 " fill="none" id="CommentsSpam-Comments" style="stroke:#181818;stroke-width:1.0;"/><line style="stroke:#181818;stroke-width:1.0;" x1="986.2709" x2="991.3615" y1="109.693" y2="103.5216"/><line style="stroke:#181818;stroke-width:1.0;" x1="988.5851" x2="993.6757" y1="111.602" y2="105.4306"/><line style="stroke:#181818;stroke-width:1.0;" x1="991.9019" x2="985.7305" y1="109.1526" y2="104.062"/><line style="stroke:#181818;stroke-width:1.0;" x1="1091.3211" x2="1101.3104" y1="191.1615" y2="191.6234"/><line style="stroke:#181818;stroke-width:1.0;" x1="1091.3211" x2="1093.6746" y1="191.1615" y2="200.8806"/><line style="stroke:#181818;stroke-width:1.0;" x1="1091.3211" x2="1097.4925" y1="191.1615" y2="196.252"/><ellipse cx="1086.6925" cy="187.3436" fill="none" rx="4" ry="4" style="stroke:#181818;stroke-width:1.0;"/></g><!--link CommentsSpam to UserAccounts--><g id="link_CommentsSpam_UserAccounts"><path codeLine="120" d="M897.3901,110.4545 C881.0141,131.4275 868.2675,152.235 859.7705,180 C838.7005,248.848 841.8585,272.264 859.7705,342 C867.3415,371.477 883.4645,373.024 892.7705,402 C919.4505,485.076 926.1675,568.7445 927.9455,630.3805 " fill="none" id="CommentsSpam-UserAccounts" style="stroke:#181818;stroke-width:1.0;"/><line style="stroke:#181818;stroke-width:1.0;" x1="896.699" x2="903.0045" y1="104.84" y2="109.7635"/><line style="stroke:#181818;stroke-width:1.0;" x1="894.8527" x2="901.1583" y1="107.2046" y2="112.1281"/><line style="stroke:#181818;stroke-width:1.0;" x1="897.3901" x2="902.3135" y1="110.4545" y2="104.149"/><line style="stroke:#181818;stroke-width:1.0;" x1="928.2338" x2="934.462" y1="640.3763" y2="648.2"/><line style="stroke:#181818;stroke-width:1.0;" x1="928.2338" x2="922.467" y1="640.3763" y2="648.546"/><line style="stroke:#181818;stroke-width:1.0;" x1="928.2338" x2="928.4645" y1="640.3763" y2="648.373"/><ellipse cx="928.0608" cy="634.3788" fill="none" rx="4" ry="4" style="stroke:#181818;stroke-width:1.0;"/></g><!--link CommentsHelpful to Comments--><g id="link_CommentsHelpful_Comments"><path codeLine="121" d="M504.8289,75.0309 C656.8489,93.5399 967.9665,135.413 1069.7705,180 C1079.9515,184.459 1074.9017,180.3672 1084.5707,186.5822 " fill="none" id="CommentsHelpful-Comments" style="stroke:#181818;stroke-width:1.0;"/><line style="stroke:#181818;stroke-width:1.0;" x1="500.3747" x2="501.3416" y1="78.5181" y2="70.5768"/><line style="stroke:#181818;stroke-width:1.0;" x1="503.3527" x2="504.3196" y1="78.8807" y2="70.9394"/><line style="stroke:#181818;stroke-width:1.0;" x1="504.8289" x2="496.8875" y1="75.0309" y2="74.064"/><line style="stroke:#181818;stroke-width:1.0;" x1="1092.9828" x2="1102.9568" y1="191.9893" y2="191.2677"/><line style="stroke:#181818;stroke-width:1.0;" x1="1092.9828" x2="1096.4682" y1="191.9893" y2="201.3623"/><line style="stroke:#181818;stroke-width:1.0;" x1="1092.9828" x2="1099.7125" y1="191.9893" y2="196.315"/><ellipse cx="1087.9356" cy="188.7451" fill="none" rx="4" ry="4" style="stroke:#181818;stroke-width:1.0;"/></g><!--link CommentsHelpful to UserAccounts--><g id="link_CommentsHelpful_UserAccounts"><path codeLine="122" d="M355.2398,109.1475 C242.4148,197.9375 6,411.763 133.7705,564 C222.7955,670.072 630.1542,695.2156 819.5072,701.4365 " fill="none" id="CommentsHelpful-UserAccounts" style="stroke:#181818;stroke-width:1.0;"/><line style="stroke:#181818;stroke-width:1.0;" x1="355.9094" x2="360.8569" y1="103.5304" y2="109.8171"/><line style="stroke:#181818;stroke-width:1.0;" x1="353.5519" x2="358.4994" y1="105.3857" y2="111.6724"/><line style="stroke:#181818;stroke-width:1.0;" x1="355.2398" x2="361.5265" y1="109.1475" y2="104.2"/><line style="stroke:#181818;stroke-width:1.0;" x1="829.5018" x2="837.6945" y1="701.7648" y2="696.0307"/><line style="stroke:#181818;stroke-width:1.0;" x1="829.5018" x2="837.3005" y1="701.7648" y2="708.0243"/><line style="stroke:#181818;stroke-width:1.0;" x1="829.5018" x2="837.4975" y1="701.7648" y2="702.0275"/><ellipse cx="823.505" cy="701.5678" fill="none" rx="4" ry="4" style="stroke:#181818;stroke-width:1.0;"/></g><!--link ApplicationValue to Applications--><g id="link_ApplicationValue_Applications"><path codeLine="123" d="M1026.1755,314.5421 C1041.6155,326.2781 1052.5415,333.158 1069.7705,342 C1191.0325,404.232 1327.2274,440.3967 1421.8874,461.0797 " fill="none" id="ApplicationValue-Applications" style="stroke:#181818;stroke-width:1.0;"/><line style="stroke:#181818;stroke-width:1.0;" x1="1020.5704" x2="1025.4115" y1="315.306" y2="308.9371"/><line style="stroke:#181818;stroke-width:1.0;" x1="1022.9588" x2="1027.7999" y1="317.1214" y2="310.7525"/><line style="stroke:#181818;stroke-width:1.0;" x1="1026.1755" x2="1019.8065" y1="314.5421" y2="309.701"/><line style="stroke:#181818;stroke-width:1.0;" x1="1431.6569" x2="1440.7533" y1="463.2143" y2="459.0603"/><line style="stroke:#181818;stroke-width:1.0;" x1="1431.6569" x2="1438.1917" y1="463.2143" y2="470.7837"/><line style="stroke:#181818;stroke-width:1.0;" x1="1431.6569" x2="1439.4725" y1="463.2143" y2="464.922"/><ellipse cx="1425.7952" cy="461.9335" fill="none" rx="4" ry="4" style="stroke:#181818;stroke-width:1.0;"/></g><!--link ApplicationValue to UserAccounts--><g id="link_ApplicationValue_UserAccounts"><path codeLine="124" d="M965.439,317.7549 C965.719,377.4189 964.5005,474.56 954.7705,564 C951.7225,592.017 949.7877,605.1984 944.6357,630.7764 " fill="none" id="ApplicationValue-UserAccounts" style="stroke:#181818;stroke-width:1.0;"/><line style="stroke:#181818;stroke-width:1.0;" x1="961.4203" x2="969.4202" y1="313.7737" y2="313.7362"/><line style="stroke:#181818;stroke-width:1.0;" x1="961.4344" x2="969.4343" y1="316.7737" y2="316.7362"/><line style="stroke:#181818;stroke-width:1.0;" x1="965.439" x2="965.4015" y1="317.7549" y2="309.755"/><line style="stroke:#181818;stroke-width:1.0;" x1="942.6612" x2="946.9634" y1="640.5795" y2="649.6067"/><line style="stroke:#181818;stroke-width:1.0;" x1="942.6612" x2="935.1996" y1="640.5795" y2="647.2373"/><line style="stroke:#181818;stroke-width:1.0;" x1="942.6612" x2="941.0815" y1="640.5795" y2="648.422"/><ellipse cx="943.8459" cy="634.6976" fill="none" rx="4" ry="4" style="stroke:#181818;stroke-width:1.0;"/></g><!--link WavePhase to Wave--><g id="link_WavePhase_Wave"><path codeLine="134" d="M1725.7725,539.515 C1725.7725,565.101 1725.7725,577.948 1725.7725,605.982 " fill="none" id="WavePhase-to-Wave" style="stroke:#181818;stroke-width:1.0;"/><line style="stroke:#181818;stroke-width:1.0;" x1="1725.7725" x2="1731.7725" y1="615.982" y2="623.982"/><line style="stroke:#181818;stroke-width:1.0;" x1="1725.7725" x2="1719.7725" y1="615.982" y2="623.982"/><line style="stroke:#181818;stroke-width:1.0;" x1="1725.7725" x2="1725.7725" y1="615.982" y2="623.982"/><ellipse cx="1725.7725" cy="609.982" fill="none" rx="4" ry="4" style="stroke:#181818;stroke-width:1.0;"/></g><!--SRC=[jLPTRzem57tFhxXljD9Gtr75n23RK5T0IxSz8YU-fTOIExCTMDJklyzEGaY2iqWTvIc-7-UUOrzVWrmpdSCtXN8MHIBZMi6p1-R7w0IM2xYztI57IJJIwRHmH1BjQalq11Rcwu4bM3YobBeTg9zGOfRCA9Mer0GUyBVs_dZUY3q2ASk2pbC4fY0XdEoGGfZNUK3AH31h3Y4g3GUImu75iLc15g2qa2PR0-EWC2MMBsWIngWyB2L-nJt30yfXVJ4nn8qt5296mWlZUDoln61yl9jERqPNxu5YYfmg41ma_igOnCJKLzUZ6wkted8lgAqeXhbSjEo7M4G_aTgpFXOEIzCsCxPjpSB2jjnXxeeu8S_ID6OHqKpmDsWVJXAiUgQn9mUoHmVb7YM67Ew4pCybZ5B9zhPTJ7K2mZJaIOn3trnmJIBzzZ8n8Im-bzrWrz7YFezvAPpX8ED6VITIa9AamkWdqNC4Ji3l9CxmjOZMlBS04rXbIOYoKMCkagBzBtz6WuSmgF_8hR6RKMbwBT9dZDF7BFu_i78wga6GVokNrOpjTgRrRIHBYCplCBzgXBth85utEFqmD_oYHmYkUwOqaNfhWxkl5gSkS_f4bB5PSXlxQOoMy-bvUNaPZyLpwqdr6XFVvMxDpoh05d0wMfbrgrVEPiAPivLvFF7ATupjsbk07L-VXdf6kZ1Qhv0BQ330jIdEYUTrfvUBJq-CSvUR0VM6kPpExED5xGFe-FiqbsDpG4ehg8LahvVvIrNtRtN3rXj_LNmi_DLw6InNduhLB0ZymB_tLm_5Slvb7VWBs- -d_BfR_m80]--></g></svg>