<?xml version="1.0" encoding="us-ascii" standalone="no"?><svg xmlns="http://www.w3.org/2000/svg" xmlns:xlink="http://www.w3.org/1999/xlink" contentStyleType="text/css" height="1994px" preserveAspectRatio="none" style="width:495px;height:1994px;background:#FFFFFF;" version="1.1" viewBox="0 0 495 1994" width="495px" zoomAndPan="magnify"><defs/><g><!--cluster Waves--><g id="cluster_Waves"><rect fill="none" height="229" rx="2.5" ry="2.5" style="stroke:#181818;stroke-width:1.0;" width="206" x="204" y="7"/><text fill="#000000" font-family="sans-serif" font-size="14" font-weight="bold" lengthAdjust="spacing" textLength="52" x="281" y="21.9951">Waves</text></g><!--cluster Users--><g id="cluster_Users"><rect fill="none" height="676" rx="2.5" ry="2.5" style="stroke:#181818;stroke-width:1.0;" width="219" x="197.5" y="260"/><text fill="#000000" font-family="sans-serif" font-size="14" font-weight="bold" lengthAdjust="spacing" textLength="45" x="284.5" y="274.9951">Users</text></g><!--cluster Applications--><g id="cluster_Applications"><rect fill="none" height="621" rx="2.5" ry="2.5" style="stroke:#181818;stroke-width:1.0;" width="364" x="125" y="1007"/><text fill="#000000" font-family="sans-serif" font-size="14" font-weight="bold" lengthAdjust="spacing" textLength="102" x="256" y="1021.9951">Applications</text></g><!--cluster Reviews--><g id="cluster_Reviews"><rect fill="none" height="153" rx="2.5" ry="2.5" style="stroke:#181818;stroke-width:1.0;" width="184" x="215" y="1830"/><text fill="#000000" font-family="sans-serif" font-size="14" font-weight="bold" lengthAdjust="spacing" textLength="65" x="274.5" y="1844.9951">Reviews</text></g><!--cluster Comments--><g id="cluster_Comments"><rect fill="none" height="154" rx="2.5" ry="2.5" style="stroke:#181818;stroke-width:1.0;" width="180" x="217" y="1652"/><text fill="#000000" font-family="sans-serif" font-size="14" font-weight="bold" lengthAdjust="spacing" textLength="86" x="264" y="1666.9951">Comments</text></g><g id="elem_uc1"><ellipse cx="306.9455" cy="201.1891" fill="#F1F1F1" rx="81.4455" ry="18.6891" style="stroke:#181818;stroke-width:0.5;"/><text fill="#000000" font-family="sans-serif" font-size="14" lengthAdjust="spacing" textLength="122" x="244.8109" y="204.409">Create new wave</text></g><g id="elem_uc2"><ellipse cx="307.0597" cy="56.782" fill="#F1F1F1" rx="61.5597" ry="14.782" style="stroke:#181818;stroke-width:0.5;"/><text fill="#000000" font-family="sans-serif" font-size="14" lengthAdjust="spacing" textLength="69" x="269.5597" y="60.5295">Edit wave</text></g><g id="elem_uc4"><ellipse cx="307.0368" cy="126.8074" fill="#F1F1F1" rx="87.0368" ry="19.8074" style="stroke:#181818;stroke-width:0.5;"/><text fill="#000000" font-family="sans-serif" font-size="14" lengthAdjust="spacing" textLength="135" x="239.5368" y="129.654">Switch wave phase</text></g><g id="elem_uc3"><ellipse cx="306.7915" cy="690.1583" fill="#F1F1F1" rx="88.7915" ry="20.1583" style="stroke:#181818;stroke-width:0.5;"/><text fill="#000000" font-family="sans-serif" font-size="14" lengthAdjust="spacing" textLength="139" x="237.2915" y="693.005">Grant reviewer role</text></g><g id="elem_uc5"><ellipse cx="306.7532" cy="762.9506" fill="#F1F1F1" rx="77.7532" ry="17.9506" style="stroke:#181818;stroke-width:0.5;"/><text fill="#000000" font-family="sans-serif" font-size="14" lengthAdjust="spacing" textLength="113" x="247.6994" y="766.5809">See list of users</text></g><g id="elem_uc6"><ellipse cx="307.1379" cy="314.0276" fill="#F1F1F1" rx="83.1379" ry="19.0276" style="stroke:#181818;stroke-width:0.5;"/><text fill="#000000" font-family="sans-serif" font-size="14" lengthAdjust="spacing" textLength="126" x="243.5914" y="317.0594">See users activity</text></g><g id="elem_uc7"><ellipse cx="306.8318" cy="388.8664" fill="#F1F1F1" rx="92.3318" ry="20.8664" style="stroke:#181818;stroke-width:0.5;"/><text fill="#000000" font-family="sans-serif" font-size="14" lengthAdjust="spacing" textLength="147" x="233.3318" y="391.713">Mark user as ignored</text></g><g id="elem_uc8"><ellipse cx="307.1693" cy="466.1339" fill="#F1F1F1" rx="93.6693" ry="21.1339" style="stroke:#181818;stroke-width:0.5;"/><text fill="#000000" font-family="sans-serif" font-size="14" lengthAdjust="spacing" textLength="150" x="232.1693" y="468.9805">Mark user as blocked</text></g><g id="elem_uc9"><ellipse cx="306.995" cy="541.199" fill="#F1F1F1" rx="83.995" ry="19.199" style="stroke:#181818;stroke-width:0.5;"/><text fill="#000000" font-family="sans-serif" font-size="14" lengthAdjust="spacing" textLength="128" x="242.7335" y="544.1356">See spam ranking</text></g><g id="elem_uc11"><ellipse cx="307.0368" cy="614.8074" fill="#F1F1F1" rx="87.0368" ry="19.8074" style="stroke:#181818;stroke-width:0.5;"/><text fill="#000000" font-family="sans-serif" font-size="14" lengthAdjust="spacing" textLength="135" x="239.5368" y="617.654">Export list of users</text></g><g id="elem_uc23"><ellipse cx="307.1531" cy="831.1013" fill="#F1F1F1" rx="42.1531" ry="14.6013" style="stroke:#181818;stroke-width:0.5;"/><text fill="#000000" font-family="sans-serif" font-size="14" lengthAdjust="spacing" textLength="43" x="282.6531" y="834.8489">Log in</text></g><g id="elem_uc24"><ellipse cx="306.7932" cy="899.9586" fill="#F1F1F1" rx="85.2932" ry="19.4586" style="stroke:#181818;stroke-width:0.5;"/><text fill="#000000" font-family="sans-serif" font-size="14" lengthAdjust="spacing" textLength="131" x="241.2932" y="902.8053">Create an account</text></g><g id="elem_uc10"><ellipse cx="307.1728" cy="1062.8346" fill="#F1F1F1" rx="89.6728" ry="20.3346" style="stroke:#181818;stroke-width:0.5;"/><text fill="#000000" font-family="sans-serif" font-size="14" lengthAdjust="spacing" textLength="141" x="236.6728" y="1065.6812">Export applications</text></g><g id="elem_uc12"><ellipse cx="307.0529" cy="1595.2106" fill="#F1F1F1" rx="71.5529" ry="16.7106" style="stroke:#181818;stroke-width:0.5;"/><text fill="#000000" font-family="sans-serif" font-size="14" lengthAdjust="spacing" textLength="97" x="255.5529" y="1598.9581">Mark as spam</text></g><g id="elem_uc14"><ellipse cx="306.8807" cy="1380.9761" fill="#F1F1F1" rx="67.8807" ry="15.9761" style="stroke:#181818;stroke-width:0.5;"/><text fill="#000000" font-family="sans-serif" font-size="14" lengthAdjust="spacing" textLength="87" x="260.3807" y="1384.7237">Assign value</text></g><g id="elem_uc15"><ellipse cx="306.7754" cy="1450.0551" fill="#F1F1F1" rx="75.7754" ry="17.5551" style="stroke:#181818;stroke-width:0.5;"/><text fill="#000000" font-family="sans-serif" font-size="14" lengthAdjust="spacing" textLength="108" x="249.7754" y="1453.8026">Mark as helpful</text></g><g id="elem_uc16"><ellipse cx="307.2318" cy="1523.2464" fill="#F1F1F1" rx="89.2318" ry="20.2464" style="stroke:#181818;stroke-width:0.5;"/><text fill="#000000" font-family="sans-serif" font-size="14" lengthAdjust="spacing" textLength="140" x="237.2318" y="1526.093">Filter by categories</text></g><g id="elem_uc17"><ellipse cx="306.9455" cy="1311.1891" fill="#F1F1F1" rx="81.4455" ry="18.6891" style="stroke:#181818;stroke-width:0.5;"/><text fill="#000000" font-family="sans-serif" font-size="14" lengthAdjust="spacing" textLength="122" x="244.8109" y="1314.409">Apply for a grant</text></g><g id="elem_uc18"><ellipse cx="307.1684" cy="1154.1337" fill="#F1F1F1" rx="166.1684" ry="35.6337" style="stroke:#181818;stroke-width:0.5;"/><text fill="#000000" font-family="sans-serif" font-size="14" lengthAdjust="spacing" textLength="304" x="155.1684" y="1156.9804">See public and hidden parts of application</text></g><g id="elem_uc19"><ellipse cx="307.0634" cy="1240.9127" fill="#F1F1F1" rx="70.0634" ry="16.4127" style="stroke:#181818;stroke-width:0.5;"/><text fill="#000000" font-family="sans-serif" font-size="14" lengthAdjust="spacing" textLength="93" x="257.5634" y="1244.6602">Save as draft</text></g><g id="elem_uc20"><ellipse cx="307.0766" cy="1950.9153" fill="#F1F1F1" rx="65.0766" ry="15.4153" style="stroke:#181818;stroke-width:0.5;"/><text fill="#000000" font-family="sans-serif" font-size="14" lengthAdjust="spacing" textLength="79" x="264.5766" y="1954.6629">Add review</text></g><g id="elem_uc21"><ellipse cx="306.7754" cy="1883.0551" fill="#F1F1F1" rx="75.7754" ry="17.5551" style="stroke:#181818;stroke-width:0.5;"/><text fill="#000000" font-family="sans-serif" font-size="14" lengthAdjust="spacing" textLength="108" x="249.7754" y="1886.8026">Mark as helpful</text></g><g id="elem_uc13"><ellipse cx="307.0529" cy="1704.2106" fill="#F1F1F1" rx="71.5529" ry="16.7106" style="stroke:#181818;stroke-width:0.5;"/><text fill="#000000" font-family="sans-serif" font-size="14" lengthAdjust="spacing" textLength="97" x="255.5529" y="1707.9581">Mark as spam</text></g><g id="elem_uc22"><ellipse cx="306.8343" cy="1773.1669" fill="#F1F1F1" rx="73.8343" ry="17.1669" style="stroke:#181818;stroke-width:0.5;"/><text fill="#000000" font-family="sans-serif" font-size="14" lengthAdjust="spacing" textLength="103" x="252.3343" y="1776.9144">Edit comment</text></g><!--entity moderator--><g id="elem_moderator"><ellipse cx="43.5" cy="436.5" fill="#F1F1F1" rx="8" ry="8" style="stroke:#181818;stroke-width:0.5;"/><path d="M43.5,444.5 L43.5,471.5 M30.5,452.5 L56.5,452.5 M43.5,471.5 L30.5,486.5 M43.5,471.5 L56.5,486.5 " fill="none" style="stroke:#181818;stroke-width:0.5;"/><text fill="#000000" font-family="sans-serif" font-size="14" lengthAdjust="spacing" textLength="75" x="6" y="500.9951">Moderator</text></g><!--entity visitor--><g id="elem_visitor"><ellipse cx="43.5" cy="870.5" fill="#F1F1F1" rx="8" ry="8" style="stroke:#181818;stroke-width:0.5;"/><path d="M43.5,878.5 L43.5,905.5 M30.5,886.5 L56.5,886.5 M43.5,905.5 L30.5,920.5 M43.5,905.5 L56.5,920.5 " fill="none" style="stroke:#181818;stroke-width:0.5;"/><text fill="#000000" font-family="sans-serif" font-size="14" lengthAdjust="spacing" textLength="47" x="20" y="934.9951">Visitor</text></g><!--entity member--><g id="elem_member"><ellipse cx="43.5" cy="1565.5" fill="#F1F1F1" rx="8" ry="8" style="stroke:#181818;stroke-width:0.5;"/><path d="M43.5,1573.5 L43.5,1600.5 M30.5,1581.5 L56.5,1581.5 M43.5,1600.5 L30.5,1615.5 M43.5,1600.5 L56.5,1615.5 " fill="none" style="stroke:#181818;stroke-width:0.5;"/><text fill="#000000" font-family="sans-serif" font-size="14" lengthAdjust="spacing" textLength="60" x="13.5" y="1629.9951">Member</text></g><!--entity applicant--><g id="elem_applicant"><ellipse cx="43.5" cy="1211.5" fill="#F1F1F1" rx="8" ry="8" style="stroke:#181818;stroke-width:0.5;"/><path d="M43.5,1219.5 L43.5,1246.5 M30.5,1227.5 L56.5,1227.5 M43.5,1246.5 L30.5,1261.5 M43.5,1246.5 L56.5,1261.5 " fill="none" style="stroke:#181818;stroke-width:0.5;"/><text fill="#000000" font-family="sans-serif" font-size="14" lengthAdjust="spacing" textLength="70" x="8.5" y="1275.9951">Applicant</text></g><!--entity reviewer--><g id="elem_reviewer"><ellipse cx="43.5" cy="1921.5" fill="#F1F1F1" rx="8" ry="8" style="stroke:#181818;stroke-width:0.5;"/><path d="M43.5,1929.5 L43.5,1956.5 M30.5,1937.5 L56.5,1937.5 M43.5,1956.5 L30.5,1971.5 M43.5,1956.5 L56.5,1971.5 " fill="none" style="stroke:#181818;stroke-width:0.5;"/><text fill="#000000" font-family="sans-serif" font-size="14" lengthAdjust="spacing" textLength="66" x="10.5" y="1985.9951">Reviewer</text></g><g id="elem_Browse POPGDP"><ellipse cx="306.9652" cy="973.193" fill="#F1F1F1" rx="78.9652" ry="18.193" style="stroke:#181818;stroke-width:0.5;"/><text fill="#000000" font-family="sans-serif" font-size="14" lengthAdjust="spacing" textLength="116" x="246.9" y="976.6886">Browse POPGDP</text></g><!--link moderator to uc1--><g id="link_moderator_uc1"><path d="M50.1637,427.85 C58.2009,386.27 76.693,320.18 117,279 C151.387,243.86 198.0882,225.4647 239.0372,214.5547 " fill="none" id="moderator-to-uc1" style="stroke:#181818;stroke-width:1.0;"/><polygon fill="#181818" points="244.835,213.01,235.1086,211.4619,240.0035,214.2972,237.1682,219.1922,244.835,213.01" style="stroke:#181818;stroke-width:1.0;"/></g><!--link moderator to uc2--><g id="link_moderator_uc2"><path d="M46.47,427.76 C51.7285,341.53 69.1108,135.83 117,89 C151.737,55.03 202.3294,49.1969 244.5464,50.6269 " fill="none" id="moderator-to-uc2" style="stroke:#181818;stroke-width:1.0;"/><polygon fill="#181818" points="250.543,50.83,241.6836,46.5276,245.5459,50.6607,241.4127,54.523,250.543,50.83" style="stroke:#181818;stroke-width:1.0;"/></g><!--link moderator to uc3--><g id="link_moderator_uc3"><path d="M48.6272,504.31 C55.3353,546.96 72.6859,614.77 117,652 C144.803,675.36 177.0327,685.0172 211.8057,689.2372 " fill="none" id="moderator-to-uc3" style="stroke:#181818;stroke-width:1.0;"/><polygon fill="#181818" points="217.762,689.96,209.3095,684.9049,212.7984,689.3576,208.3457,692.8466,217.762,689.96" style="stroke:#181818;stroke-width:1.0;"/></g><!--link moderator to uc4--><g id="link_moderator_uc4"><path d="M48.5883,427.95 C57.1713,355.37 79.4394,201.16 117,165 C144.245,138.77 178.2912,128.8706 214.4972,125.3506 " fill="none" id="moderator-to-uc4" style="stroke:#181818;stroke-width:1.0;"/><polygon fill="#181818" points="220.469,124.77,211.1242,121.6597,215.4925,125.2538,211.8983,129.6221,220.469,124.77" style="stroke:#181818;stroke-width:1.0;"/></g><!--link moderator to uc5--><g id="link_moderator_uc5"><path d="M50.0796,504.09 C60.3681,568.98 84.3024,696.9 117,727 C147.228,754.83 186.0494,763.8675 224.4524,766.1275 " fill="none" id="moderator-to-uc5" style="stroke:#181818;stroke-width:1.0;"/><polygon fill="#181818" points="230.442,766.48,221.6925,761.9582,225.4506,766.1863,221.2226,769.9444,230.442,766.48" style="stroke:#181818;stroke-width:1.0;"/></g><!--link moderator to uc6--><g id="link_moderator_uc6"><path d="M58.6421,427.98 C70.3161,401.95 89.465,368.85 117,350 C148.148,328.68 182.6594,319.8385 218.1584,315.8585 " fill="none" id="moderator-to-uc6" style="stroke:#181818;stroke-width:1.0;"/><polygon fill="#181818" points="224.121,315.19,214.7314,312.2177,219.1521,315.7471,215.6227,320.1679,224.121,315.19" style="stroke:#181818;stroke-width:1.0;"/></g><!--link moderator to uc7--><g id="link_moderator_uc7"><path d="M81.154,443.57 C92.3459,437.48 104.8991,431.36 117,427 C152.107,414.35 186.5738,406.5326 220.9728,400.5826 " fill="none" id="moderator-to-uc7" style="stroke:#181818;stroke-width:1.0;"/><polygon fill="#181818" points="226.885,399.56,217.3349,397.1525,221.9582,400.4122,218.6984,405.0354,226.885,399.56" style="stroke:#181818;stroke-width:1.0;"/></g><!--link moderator to uc8--><g id="link_moderator_uc8"><path d="M81.1358,466 C115.293,466 161.679,466 207.297,466 " fill="none" id="moderator-to-uc8" style="stroke:#181818;stroke-width:1.0;"/><polygon fill="#181818" points="213.297,466,204.297,462,208.297,466,204.297,470,213.297,466" style="stroke:#181818;stroke-width:1.0;"/></g><!--link moderator to uc9--><g id="link_moderator_uc9"><path d="M81.1981,487.86 C92.3912,493.8 104.934,499.76 117,504 C154.379,517.14 191.7261,525.081 227.4251,530.861 " fill="none" id="moderator-to-uc9" style="stroke:#181818;stroke-width:1.0;"/><polygon fill="#181818" points="233.348,531.82,225.103,526.433,228.4123,531.0209,223.8244,534.3301,233.348,531.82" style="stroke:#181818;stroke-width:1.0;"/></g><!--link moderator to uc10--><g id="link_moderator_uc10"><path d="M48.4651,504.27 C61.0888,624.64 100.4796,988.79 117,1008 C142.403,1037.537 176.7539,1050.6167 213.5999,1057.2127 " fill="none" id="moderator-to-uc10" style="stroke:#181818;stroke-width:1.0;"/><polygon fill="#181818" points="219.506,1058.27,211.3517,1052.7467,214.5842,1057.3889,209.942,1060.6215,219.506,1058.27" style="stroke:#181818;stroke-width:1.0;"/></g><!--link moderator to uc11--><g id="link_moderator_uc11"><path d="M60.0082,504.19 C71.9633,528.77 90.891,559.32 117,577 C147.206,597.46 180.0069,606.5777 214.5459,611.2377 " fill="none" id="moderator-to-uc11" style="stroke:#181818;stroke-width:1.0;"/><polygon fill="#181818" points="220.492,612.04,212.1076,606.8725,215.5369,611.3715,211.038,614.8007,220.492,612.04" style="stroke:#181818;stroke-width:1.0;"/></g><!--link visitor to uc23--><g id="link_visitor_uc23"><path d="M67.2267,886.13 C81.1376,878.23 99.5609,868.78 117,863 C166.758,846.52 220.8599,838.8183 259.7209,834.8583 " fill="none" id="visitor-to-uc23" style="stroke:#181818;stroke-width:1.0;"/><polygon fill="#181818" points="265.69,834.25,256.3309,831.183,260.7158,834.7569,257.1419,839.1418,265.69,834.25" style="stroke:#181818;stroke-width:1.0;"/></g><!--link visitor to uc24--><g id="link_visitor_uc24"><path d="M67.249,900 C101.2963,900 161.279,900 215.265,900 " fill="none" id="visitor-to-uc24" style="stroke:#181818;stroke-width:1.0;"/><polygon fill="#181818" points="221.265,900,212.265,896,216.265,900,212.265,904,221.265,900" style="stroke:#181818;stroke-width:1.0;"/></g><!--link visitor to Browse POPGDP--><g id="link_visitor_Browse POPGDP"><path d="M67.0064,913.14 C80.9906,920.8 99.5665,930.08 117,936 C156.103,949.27 195.5397,957.39 232.0197,963.24 " fill="none" id="visitor-to-Browse POPGDP" style="stroke:#181818;stroke-width:1.0;"/><polygon fill="#181818" points="237.944,964.19,229.6909,958.8154,233.0071,963.3983,228.4242,966.7145,237.944,964.19" style="stroke:#181818;stroke-width:1.0;"/></g><!--link member to uc12--><g id="link_member_uc12"><path d="M73.7362,1595 C112.586,1595 176.486,1595 229.486,1595 " fill="none" id="member-to-uc12" style="stroke:#181818;stroke-width:1.0;"/><polygon fill="#181818" points="235.486,1595,226.486,1591,230.486,1595,226.486,1599,235.486,1595" style="stroke:#181818;stroke-width:1.0;"/></g><!--link member to uc13--><g id="link_member_uc13"><path d="M73.6465,1608.627 C86.8262,1614.696 102.6354,1621.846 117,1628 C169.664,1650.561 225.7704,1672.8211 263.9784,1687.7291 " fill="none" id="member-to-uc13" style="stroke:#181818;stroke-width:1.0;"/><polygon fill="#181818" points="269.568,1689.91,262.6376,1682.9122,264.91,1688.0925,259.7297,1690.365,269.568,1689.91" style="stroke:#181818;stroke-width:1.0;"/></g><!--link member to uc14--><g id="link_member_uc14"><path d="M48.9962,1556.987 C56.013,1515.5 73.6181,1450.293 117,1415 C151.267,1387.122 194.6965,1379.1984 234.4095,1377.8444 " fill="none" id="member-to-uc14" style="stroke:#181818;stroke-width:1.0;"/><polygon fill="#181818" points="240.406,1377.64,231.2749,1373.949,235.4089,1377.8104,231.5475,1381.9444,240.406,1377.64" style="stroke:#181818;stroke-width:1.0;"/></g><!--link member to uc15--><g id="link_member_uc15"><path d="M60.1361,1556.75 C72.0969,1532.383 90.9813,1502.255 117,1485 C150.373,1462.868 188.0122,1454.3432 224.9332,1450.9492 " fill="none" id="member-to-uc15" style="stroke:#181818;stroke-width:1.0;"/><polygon fill="#181818" points="230.908,1450.4,221.5796,1447.2407,225.929,1450.8577,222.3119,1455.2071,230.908,1450.4" style="stroke:#181818;stroke-width:1.0;"/></g><!--link member to uc16--><g id="link_member_uc16"><path d="M73.8241,1579.283 C86.7678,1572.866 102.3445,1565.832 117,1561 C153.872,1548.844 190.2244,1540.9339 225.4214,1534.7889 " fill="none" id="member-to-uc16" style="stroke:#181818;stroke-width:1.0;"/><polygon fill="#181818" points="231.332,1533.757,221.7782,1531.3645,226.4065,1534.6169,223.1541,1539.2453,231.332,1533.757" style="stroke:#181818;stroke-width:1.0;"/></g><!--link member to uc21--><g id="link_member_uc21"><path d="M48.0644,1633.014 C54.3322,1679.44 71.359,1757.733 117,1806 C151.324,1842.299 199.3517,1860.5177 240.8057,1870.8667 " fill="none" id="member-to-uc21" style="stroke:#181818;stroke-width:1.0;"/><polygon fill="#181818" points="246.627,1872.32,238.8639,1866.2592,241.7759,1871.1089,236.9261,1874.0209,246.627,1872.32" style="stroke:#181818;stroke-width:1.0;"/></g><!--link member to uc22--><g id="link_member_uc22"><path d="M53.6075,1633.106 C63.5385,1666.09 82.7891,1712.404 117,1738 C149.999,1762.689 189.1604,1771.274 227.0534,1773.99 " fill="none" id="member-to-uc22" style="stroke:#181818;stroke-width:1.0;"/><polygon fill="#181818" points="233.038,1774.419,224.347,1769.7858,228.0508,1774.0615,223.7751,1777.7653,233.038,1774.419" style="stroke:#181818;stroke-width:1.0;"/></g><!--link applicant to uc17--><g id="link_applicant_uc17"><path d="M78.8155,1259.244 C90.6559,1264.955 104.1716,1270.843 117,1275 C155.449,1287.459 193.8495,1295.2404 229.9075,1300.9764 " fill="none" id="applicant-to-uc17" style="stroke:#181818;stroke-width:1.0;"/><polygon fill="#181818" points="235.833,1301.919,227.5732,1296.5548,230.8951,1301.1335,226.3164,1304.4554,235.833,1301.919" style="stroke:#181818;stroke-width:1.0;"/></g><!--link applicant to uc18--><g id="link_applicant_uc18"><path d="M78.6676,1223.559 C90.6124,1217.843 104.2299,1211.748 117,1207 C142.873,1197.381 165.5225,1190.1784 192.2895,1182.5904 " fill="none" id="applicant-to-uc18" style="stroke:#181818;stroke-width:1.0;"/><polygon fill="#181818" points="198.062,1180.954,188.3123,1179.5603,193.2516,1182.3177,190.4941,1187.257,198.062,1180.954" style="stroke:#181818;stroke-width:1.0;"/></g><!--link applicant to uc19--><g id="link_applicant_uc19"><path d="M78.6866,1241 C118.697,1241 179.963,1241 230.968,1241 " fill="none" id="applicant-to-uc19" style="stroke:#181818;stroke-width:1.0;"/><polygon fill="#181818" points="236.968,1241,227.968,1237,231.968,1241,227.968,1245,236.968,1241" style="stroke:#181818;stroke-width:1.0;"/></g><!--link reviewer to uc20--><g id="link_reviewer_uc20"><path d="M76.565,1951 C117.548,1951 183.457,1951 235.873,1951 " fill="none" id="reviewer-to-uc20" style="stroke:#181818;stroke-width:1.0;"/><polygon fill="#181818" points="241.873,1951,232.873,1947,236.873,1951,232.873,1955,241.873,1951" style="stroke:#181818;stroke-width:1.0;"/></g><!--SRC=[ZLLDZvim4BtpAqPxQWyh9K2-BfMostOlNJLgrVRim01Mm4QsWKPL_tljOADWesfpyhnvCvvvCpWr5WeK1q7BIa5E1MQASXP595DSm2lFKH1p8X8QPrZdJogfTVNZqKLXSyOnv7QoyB5jQveHfeo7ECCwls5FSHYZX3r7aIc7iB96-4LwbF0d0lth96P48Zmy2oGAWU40W_O_cE0kMyz9dtAgxjtntFrze2ghRWHeAmrPMXhzlR__XqGHtFyYJ3UkN12yTj69TmaYr5Ggu8K1XRIqJKYxkK6BGdkghfQtdVDUYRZSYCPBIyO5vfQv-m_pNFFiCZ7tuTso9GtedYwKbPPryCJytNAX5djPUxf_uILGvaHF5YT7cEuqunrJZkV9RdV6x6IWlgs5t55SAQi55RJ7zESetXeSfTH2Ga_gRjgZT3bBXNLRTBLZUJFyJ6kbvJvVGTU49HSKfxAyCPhchb2OJmXAiqgEjmj7qtPdtQKMB8UAvZaoQ8bGqWpXJW2Nm9-jMMxjoGKffaiESwN73p0G-PZdTi7TX5PlKILUpxC_ywP1feBqIvD95hxVR8ntsMEJVNgFuF7nm-sxzv4uG980IGDa4o3R0Da5o3v03c65gn1QHv5zFLtHYG-aC-3Ta-235kRqzVJoyVHUwp0-jpPVxDc9PwUUlV7ixTpMWvpRiVvlc1vo6xCBeNq87Sn2sAVI9blz0m00]--></g></svg>